<?xml version="1.0" encoding="UTF-8"?><svg id="Layer_1" xmlns="http://www.w3.org/2000/svg" width="144" height="144" viewBox="0 0 144 144"><defs><style>.cls-1{fill:#00f6c9;}.cls-2{fill:#fcfcfc;}.cls-3{fill:#00f5c9;}.cls-4{fill:#00f4c8;}.cls-5{fill:#00f7ca;}.cls-6{fill:#fdfdfd;}</style></defs><circle cx="72" cy="72" r="71.53"/><path class="cls-2" d="M33.34,95.38c-.57-.48-.89-.91-.87-1.64v-43.28c0-.68.27-1.26.82-1.56,1.53-.85,2.92-1.83,4.53-2.59,1.37-.8,2.59-1.7,4.23-2.37l11.85,28.05-11.95,28.31-8.61-4.9Z"/><path class="cls-6" d="M111.14,94.35c0,.52-.13.8-.42.97l-5.48,3.14c-1.01.7-2.02,1.3-3.24,1.76l-11.92-28.26,11.81-28c1.49.49,2.71,1.4,4.01,2.21,1.01.42,1.88.98,2.78,1.56.83.53,1.72.8,2.45,1.55v45.08Z"/><path class="cls-2" d="M71.22,117.36c-1.12-.88-2.19-1.38-3.34-2.05l-3.43-2-2.88-1.62c-1.04-.59-1.95-1.35-3.1-1.76-.48-.34-.99-.54-1.47-1.05l15-35.74,15.04,35.84-4.12,2.49c-1.53.77-2.95,1.61-4.43,2.48l-2.61,1.53c-.94.55-2.2,1.15-2.95,1.86-.35.15-1.38.29-1.7.04Z"/><path class="cls-2" d="M71.99,70.81l-14.86-35.37c.07-.57.57-.57.86-.92,1.4-.54,2.54-1.41,3.83-2.14l2.77-1.56,3.42-2.03c.9-.53,1.97-.85,2.7-1.63.46-.49.77-.57,1.37-.64.69-.08.74.43,1.28.75l6.51,3.83,3.02,1.68,4.05,2.41-14.95,35.62Z"/><path class="cls-4" d="M107.16,108.53c-.5.29-.79.73-1.32.77-.32-.71-.65-1.42-.89-2.21l3.93-2.33,3.36-1.91,3.8-2.2c.78-.45,1.58-.71,2.19-1.5v-53.75c-.69-.82-1.55-1.14-2.42-1.64l-7.12-4.13c-1.35-.78-2.69-1.43-3.92-2.37.23-.73.54-1.39.85-2.09.59.04.87.55,1.33.78,1.01.51,2.02.9,2.97,1.53,1.39.91,2.82,1.7,4.26,2.53l3.68,2.11c1.43.82,2.49,1.87,2.49,3.63l-.02,53.55c0,.86-.47,2.03-1.13,2.35-1.38.65-2.47,1.38-3.74,2.12l-2.03,1.18-6.26,3.59Z"/><path class="cls-5" d="M37.03,108.53l-6.25-3.59-2.02-1.18c-1.28-.74-2.4-1.41-3.74-2.15-.83-.46-1.39-1.9-1.39-2.99l-.02-52.51c0-1.59.73-2.9,2.01-3.6l1.82-.98c1.07-.58,2.07-1.18,3.11-1.79l1.77-1.04,1.65-.99c.46-.27.81-.52,1.3-.79l3.1-1.68c.35.65.59,1.3.91,2.08-.59.43-1.17.83-1.84,1.21l-7.76,4.41-1.86,1.15c-.81.5-1.65.81-2.15,1.69v53c.65,1.01,1.63,1.38,2.6,1.94l6.88,4,3.92,2.25c-.2.78-.56,1.45-.88,2.23-.48-.04-.71-.42-1.16-.67Z"/><path class="cls-1" d="M91.27,117.72c-.26.24-5.4,3.06-6.22,3.56l-3.27,1.98c-.93.56-1.83,1.02-2.81,1.51-1.24.62-2.28,1.7-3.7,2.05-2.08.51-4.29.55-6.38,0-1.43-.37-2.51-1.49-3.76-2.14-.87-.45-1.63-.84-2.47-1.32l-2.98-1.71c-.67-.38-1.19-.82-1.93-1.12-.78-.31-1.38-1.01-2.16-1.37-.93-.44-1.87-.8-2.66-1.47-.91-.77-3.17-1.55-4.56-2.75,1.35-.09,2.66-.05,4.04-.03.92.01,1.54.63,2.28,1.05l3.58,2.05,2.99,1.71,3.56,2.07c1.93,1.12,3.74,2.31,5.8,3.21.9.39,2.04-.02,3.05.07l15.5-8.89c.83-.48,1.51-1.16,2.49-1.23,1.42-.11,2.78-.06,4.18-.01-1.24,1.13-3.81,2.07-4.55,2.76Z"/><path class="cls-3" d="M70.48,19.39l-9.81,5.74-2.93,1.63c-4.73,2.64-2.39,2.23-8.68,2.23.79-.46,1.58-.67,2.22-1.36,3.05-1.51,5.62-3.16,8.62-4.87l4.32-2.45c1.02-.58,1.97-1.13,2.97-1.71l2.17-1.25c1.48-.86,3.73-.96,5.23-.1l3.67,2.12c.51.3.95.5,1.46.79l4.43,2.53c3,1.72,5.57,3.29,8.63,4.91.69.53,1.32,1.02,2.15,1.33l-4.73.02-3.93-2.26-2.99-1.71-9.62-5.56c-.33-.6-.9-.51-1.45-.58-.85-.1-1.14.18-1.74.53Z"/></svg>