<?xml version="1.0" encoding="UTF-8"?><svg id="Layer_1" xmlns="http://www.w3.org/2000/svg" width="144" height="144" viewBox="0 0 144 144"><defs><style>.cls-1{fill:#00f6c9;}.cls-2{fill:#fcfcfc;}.cls-3{fill:#00f5c9;}.cls-4{fill:#00f4c8;}.cls-5{fill:#00f7ca;}.cls-6{fill:#fdfdfd;}</style></defs><rect width="144" height="144"/><path class="cls-2" d="M26.87,99.29c-.67-.56-1.04-1.06-1.01-1.92v-50.53c0-.79.31-1.47.96-1.83,1.79-1,3.41-2.14,5.29-3.02,1.6-.93,3.02-1.99,4.93-2.76l13.84,32.74-13.95,33.05-10.05-5.73Z"/><path class="cls-6" d="M117.7,98.09c0,.61-.15.94-.49,1.13l-6.4,3.66c-1.18.82-2.36,1.52-3.79,2.06l-13.92-33,13.79-32.69c1.74.58,3.17,1.64,4.68,2.58,1.18.49,2.19,1.15,3.25,1.82.97.61,2.01.94,2.86,1.81v52.62Z"/><path class="cls-2" d="M71.09,124.95c-1.31-1.03-2.56-1.61-3.9-2.39l-4.01-2.34-3.36-1.89c-1.22-.69-2.3-1.53-3.61-2.09-.62-.27-1.14-.66-1.73-1.19l17.51-41.73,17.56,41.84-4.8,2.9c-1.78.9-3.44,1.88-5.17,2.89l-3.05,1.78c-1.1.64-2.57,1.35-3.44,2.17-.41.18-1.61.34-1.98.04Z"/><path class="cls-2" d="M71.98,70.61l-17.35-41.3c.08-.67.66-.66,1-1.07,1.63-.63,2.96-1.65,4.47-2.5l3.24-1.82,4-2.36c1.05-.62,2.3-1,3.16-1.91.53-.57.9-.66,1.59-.75.81-.1.86.5,1.49.87l7.6,4.47,3.52,1.97,4.73,2.81-17.45,41.58Z"/><path class="cls-4" d="M113.05,114.65c-.58.33-.92.85-1.54.9-.38-.83-.76-1.66-1.04-2.58l4.59-2.72,3.92-2.23,4.44-2.57c.91-.52,1.84-.83,2.55-1.76v-62.75c-.81-.95-1.81-1.33-2.82-1.91l-8.31-4.82c-1.57-.91-3.14-1.67-4.57-2.77.27-.86.63-1.62.99-2.44.69.05,1.01.64,1.55.91,1.18.6,2.36,1.06,3.47,1.78,1.62,1.06,3.29,1.99,4.97,2.96l4.3,2.47c1.67.96,2.91,2.18,2.91,4.24l-.03,62.52c0,1-.55,2.37-1.32,2.74-1.61.76-2.88,1.61-4.37,2.48l-2.36,1.37-7.31,4.19Z"/><path class="cls-5" d="M31.17,114.65l-7.29-4.19-2.36-1.37c-1.49-.87-2.8-1.65-4.37-2.51-.97-.53-1.63-2.22-1.63-3.5l-.02-61.3c0-1.86.85-3.39,2.35-4.2l2.12-1.14c1.25-.67,2.41-1.37,3.63-2.09l2.06-1.22,1.93-1.15c.54-.32.95-.61,1.51-.92l3.62-1.96c.41.76.69,1.52,1.06,2.43-.69.5-1.37.97-2.15,1.41l-9.06,5.15-2.18,1.34c-.94.58-1.93.95-2.51,1.97v61.88c.76,1.18,1.91,1.61,3.04,2.26l8.03,4.67,4.57,2.63c-.23.92-.65,1.69-1.02,2.6-.56-.05-.83-.49-1.35-.78Z"/><path class="cls-1" d="M94.5,125.38c-.3.28-6.3,3.57-7.27,4.16l-3.82,2.32c-1.08.66-2.14,1.19-3.28,1.77-1.45.73-2.66,1.99-4.32,2.4-2.43.6-5,.64-7.45,0-1.66-.43-2.93-1.74-4.39-2.5-1.02-.52-1.9-.98-2.89-1.54l-3.48-1.99c-.78-.45-1.39-.96-2.25-1.31-.91-.37-1.62-1.18-2.52-1.6-1.08-.51-2.18-.93-3.1-1.71-1.06-.9-3.7-1.81-5.32-3.21,1.58-.1,3.11-.06,4.71-.03,1.08.02,1.8.74,2.66,1.23l4.18,2.39,3.49,1.99,4.16,2.41c2.25,1.31,4.36,2.69,6.77,3.75,1.05.46,2.38-.03,3.56.08l18.09-10.38c.97-.56,1.76-1.35,2.91-1.44,1.66-.13,3.25-.07,4.88-.02-1.45,1.32-4.45,2.42-5.31,3.22Z"/><path class="cls-3" d="M70.23,10.58l-11.45,6.71-3.42,1.91c-5.52,3.08-2.79,2.6-10.13,2.6.92-.54,1.84-.78,2.59-1.59,3.56-1.76,6.56-3.69,10.06-5.68l5.04-2.86c1.19-.68,2.3-1.32,3.47-2l2.53-1.46c1.73-1,4.35-1.13,6.11-.11l4.29,2.48c.6.35,1.11.59,1.7.93l5.17,2.96c3.51,2,6.5,3.84,10.07,5.74.81.62,1.54,1.19,2.51,1.56l-5.52.02-4.59-2.64-3.49-2-11.23-6.49c-.38-.7-1.06-.6-1.69-.67-.99-.12-1.33.21-2.03.62Z"/></svg>