<svg width="181" height="206" viewBox="0 0 181 206" fill="none" xmlns="http://www.w3.org/2000/svg">
<path d="M86.5 2.31004C88.9752 0.880973 92.0248 0.880973 94.5 2.31004L175.268 48.9409C177.743 50.37 179.268 53.0116 179.268 55.8696V149.131C179.267 151.989 177.743 154.631 175.268 156.06L94.5 202.691C92.0249 204.12 88.9751 204.12 86.5 202.691L61.9941 188.542C62.7455 187.251 63.4987 185.821 64.25 184.25C64.4151 183.905 64.5778 183.554 64.7402 183.2L89.5 197.495C90.1187 197.852 90.8813 197.852 91.5 197.495L172.268 150.864C172.886 150.507 173.267 149.846 173.268 149.131V55.8696C173.268 55.1552 172.886 54.4945 172.268 54.1372L142.474 36.936C142.49 36.7858 142.5 36.6408 142.5 36.5005C142.5 35.5005 141.833 34.5838 140.5 33.7505C139.333 32.9172 137.917 32.2505 136.25 31.7505C134.583 31.0838 132.833 30.5838 131 30.2505C130.95 30.2414 130.9 30.2338 130.851 30.2251L91.5 7.50632C90.8812 7.14906 90.1188 7.14906 89.5 7.50632L41.5742 35.1753C40.9461 35.1191 40.3379 35.0623 39.75 35.0005C36.75 34.5005 35 34.9171 34.5 36.2505C34.1131 37.3147 34.0079 38.3786 34.1826 39.4428L8.73242 54.1372C8.11374 54.4945 7.73242 55.1551 7.73242 55.8696V149.131C7.73259 149.846 8.11375 150.507 8.73242 150.864L49.0859 174.162C48.9047 175.7 48.7109 177.314 48.5 179C48.4337 179.465 48.3398 179.994 48.2207 180.59L5.73242 156.06C3.33469 154.676 1.82923 152.153 1.7373 149.399L1.73242 149.131V55.8696C1.73242 53.1009 3.16339 50.5355 5.50293 49.0786L5.73242 48.9409L86.5 2.31004Z" fill="#02FCCF"/>
<path d="M161.822 56.9409C164.297 58.3699 165.822 61.0106 165.822 63.8686V141.131C165.822 143.989 164.297 146.63 161.822 148.059L94.9111 186.691C92.436 188.12 89.3863 188.12 86.9111 186.691L67.7549 175.63C68.2702 174.147 68.769 172.604 69.25 171C70.9166 165.834 72.0833 160.334 72.75 154.5C73.4166 149.167 73.8333 143.167 74 136.5C74.3333 129.834 74.5 123.75 74.5 118.25H122.25C123.917 118.25 126 117.417 128.5 115.75C131 114.084 133.25 112.084 135.25 109.75C137.417 107.251 139.083 104.667 140.25 102C141.417 99.334 141.666 97.0004 141 95.0005C140.667 93.8338 139.75 93.0838 138.25 92.7505C136.75 92.4171 135.083 92.3338 133.25 92.5005C131.583 92.5005 129.917 92.6671 128.25 93.0005C126.583 93.1671 125.25 93.3338 124.25 93.5005C119.75 94.0005 115.5 94.4171 111.5 94.7505L100 95.7505C96.1667 95.9171 92.1667 96.1671 88 96.5005C84 96.6671 79.5 96.8338 74.5 97.0005C74.8333 91.1673 74.9167 84.5836 74.75 77.2505C74.5833 69.9173 74.4167 62.417 74.25 54.7505H88.5C92.8333 54.5838 97 54.4171 101 54.2505C105 54.0838 108.917 53.8338 112.75 53.5005C116.75 53.0005 120.917 52.4171 125.25 51.7505C127.75 51.4172 130.083 50.5837 132.25 49.2505C134.417 47.9172 136.25 46.5004 137.75 45.0005C138.148 44.5583 138.521 44.1204 138.872 43.6899L161.822 56.9409ZM39 46.5005C40.8333 48.0004 42.8334 49.3339 45 50.5005C47.1666 51.5004 49.1667 52.0838 51 52.2505V136C51 140.834 50.9167 145.084 50.75 148.75C50.75 152.25 50.6667 155.584 50.5 158.75C50.3834 160.965 50.2245 163.18 50.0264 165.395L46.9111 163.596L20 148.059C17.5249 146.63 16 143.989 16 141.131V63.8686C16.0001 61.0106 17.5249 58.37 20 56.9409L38.6484 46.1733C38.7646 46.2819 38.8804 46.3928 39 46.5005ZM86.9111 18.3091C89.3863 16.8801 92.436 16.8801 94.9111 18.3091L117.369 31.2749C114.303 31.683 111.096 32.0924 107.75 32.5005C101.083 33.1671 94.3333 33.7505 87.5 34.2505C80.8333 34.7505 74.3333 35.1671 68 35.5005C63.9086 35.7158 60.0955 35.8249 56.5605 35.8315L86.9111 18.3091Z" fill="white"/>
</svg>
