<svg width="178" height="203" viewBox="0 0 178 203" fill="none" xmlns="http://www.w3.org/2000/svg">
<path d="M171.535 54.6314C171.535 53.9168 171.154 53.2562 170.535 52.8989L89.7676 6.26809C89.1488 5.91082 88.3864 5.91082 87.7676 6.26809L7 52.8989C6.3812 53.2562 6 53.9168 6 54.6314V147.893C6 148.608 6.3812 149.268 7 149.626L87.7676 196.256C88.3864 196.614 89.1488 196.614 89.7676 196.256L170.535 149.626C171.154 149.268 171.535 148.608 171.535 147.893V54.6314ZM177.535 147.893C177.535 150.751 176.01 153.393 173.535 154.822L92.7676 201.453C90.2924 202.882 87.2428 202.882 84.7676 201.453L4 154.822C1.60213 153.437 0.0966518 150.915 0.00488281 148.161L0 147.893V54.6314C0 51.8626 1.43084 49.2972 3.77051 47.8404L4 47.7027L84.7676 1.0718C87.2428 -0.357266 90.2924 -0.357265 92.7676 1.0718L173.535 47.7027C176.01 49.1317 177.535 51.7732 177.535 54.6314V147.893Z" fill="#02FCCF"/>
<path d="M85.2676 22.0713C87.7427 20.6423 90.7924 20.6423 93.2676 22.0713L156.281 58.4531C158.756 59.8822 160.281 62.5228 160.281 65.3809V138.144C160.281 141.002 158.756 143.642 156.281 145.071L93.2676 181.453C90.7924 182.882 87.7427 182.882 85.2676 181.453L22.2539 145.071C19.7787 143.642 18.254 141.002 18.2539 138.144V65.3809C18.254 62.5228 19.7787 59.8822 22.2539 58.4531L85.2676 22.0713ZM124.11 101.202C122.459 101.121 122.458 101.121 118.079 101.202C117.508 101.213 116.937 101.223 116.365 101.232C115.135 101.253 113.905 101.275 112.675 101.298C112.406 102.355 112.149 103.415 111.907 104.479C111.868 104.651 111.831 104.82 111.793 104.987C111.624 105.732 111.454 106.478 111.285 107.223C111.157 107.787 111.029 108.352 110.9 108.917C110.859 109.101 110.818 109.28 110.777 109.458C110.596 110.259 110.416 111.06 110.219 111.857C110.029 112.609 109.843 113.36 109.683 114.119C109.637 114.337 109.59 114.555 109.544 114.772C109.469 115.127 109.394 115.482 109.319 115.836C109.049 117.126 108.78 118.409 108.404 119.673C108.157 120.459 108.089 121.065 107.993 121.925H114.138L113.991 122.364C113.96 123.204 113.959 123.851 114.431 124.559C114.332 123.707 114.225 122.915 114.431 122.071C114.58 122.022 114.724 121.973 114.869 121.925C114.898 121.843 114.927 121.764 114.955 121.685C114.976 121.567 114.996 121.454 115.016 121.34C115.14 120.82 115.263 120.299 115.386 119.778C115.433 119.577 115.48 119.375 115.527 119.173C115.598 118.874 115.669 118.576 115.739 118.277C115.762 118.18 115.784 118.085 115.807 117.99C115.934 117.451 116.045 116.922 116.128 116.374C116.148 116.222 116.167 116.074 116.187 115.927C116.39 115.916 116.595 115.915 116.799 115.918C117.221 115.968 117.433 115.986 117.703 116.326C117.757 116.437 117.811 116.544 117.863 116.651C117.926 116.774 117.986 116.893 118.047 117.012C118.17 117.259 118.297 117.504 118.429 117.746C118.562 117.986 118.696 118.226 118.828 118.467C118.897 118.592 118.963 118.714 119.029 118.835C119.301 119.329 119.573 119.823 119.844 120.316C120.142 120.863 120.432 121.394 120.722 121.925H135.644C135.693 121.776 135.742 121.631 135.79 121.486C135.987 120.833 136.216 120.273 136.684 119.773C138.388 119.239 138.388 119.239 140.236 119.379C140.59 119.388 140.944 119.394 141.298 119.396C142.339 119.399 143.38 119.411 144.421 119.438C144.43 119.562 144.439 119.681 144.448 119.801C144.461 119.963 144.472 120.12 144.484 120.277C144.536 120.966 144.638 121.565 144.86 122.218C145.295 122.243 145.589 122.218 146.003 122.071C146.112 122.022 146.218 121.973 146.323 121.925V122.364L146.47 121.925C146.89 122.126 147.215 122.218 147.683 122.253C147.955 122.252 147.955 122.253 148.222 122.252C148.418 122.252 148.615 122.251 148.812 122.251C149.119 122.248 149.425 122.245 149.732 122.245C150.426 122.245 151.258 122.384 151.883 122.071C151.821 120.457 151.686 118.882 151.417 117.289C151.379 117.065 151.342 116.841 151.305 116.616C151.245 116.249 151.185 115.882 151.125 115.515C150.955 114.482 150.79 113.448 150.629 112.414C150.589 112.157 150.59 112.157 150.551 111.905C150.446 111.231 150.341 110.557 150.236 109.883C150.162 109.4 150.087 108.917 150.012 108.434C149.988 108.281 149.965 108.132 149.941 107.983C149.823 107.213 149.7 106.448 149.529 105.688C149.451 105.352 149.386 105.032 149.34 104.689C149.314 104.387 149.291 104.085 149.249 103.784C149.001 103.361 149.002 103.361 148.941 102.853C148.854 102.382 148.765 101.912 148.664 101.443C148.518 101.297 148.518 101.297 148.203 101.274C148.06 101.272 147.922 101.271 147.783 101.27C147.095 101.259 146.406 101.254 145.718 101.249C145.34 101.247 144.963 101.245 144.586 101.242C144.028 101.234 143.47 101.226 142.912 101.223C142.733 101.222 142.558 101.221 142.384 101.221C142.124 101.216 142.123 101.216 141.868 101.211C141.706 101.211 141.548 101.212 141.391 101.212C141.248 101.211 141.109 101.209 140.97 101.208C140.618 101.297 140.618 101.298 140.368 101.64C140.304 101.772 140.241 101.901 140.179 102.029C140.033 102.262 140.032 102.262 139.89 102.49C139.786 102.657 139.685 102.818 139.584 102.979C139.387 103.293 139.195 103.611 139.009 103.931C138.917 104.177 138.821 104.421 138.716 104.662L138.276 104.809C138.233 104.909 138.192 105.008 138.15 105.105C137.965 105.592 137.719 106.001 137.446 106.443C137.374 106.559 137.304 106.671 137.234 106.783C137.087 107.022 136.939 107.261 136.792 107.5C136.556 107.881 136.32 108.263 136.086 108.646C135.125 110.205 135.125 110.205 134.153 111.758C133.275 113.162 132.4 114.568 131.529 115.977C131.328 116.303 131.127 116.629 130.925 116.954C130.521 117.603 130.111 118.248 129.741 118.916C129.281 119.77 128.752 120.554 128.183 121.34C127.881 120.888 127.609 120.426 127.337 119.956C127.264 119.83 127.193 119.707 127.122 119.584C126.671 118.805 126.223 118.026 125.796 117.234C125.445 116.582 125.071 115.946 124.687 115.313C124.632 115.223 124.579 115.136 124.525 115.049C124.835 115.007 124.835 115.007 125.257 114.903C126.995 114.041 128.538 112.762 129.468 111.035C129.528 110.908 129.587 110.784 129.646 110.66C129.841 110.255 129.997 109.863 130.13 109.433C130.494 107.534 130.459 105.283 129.353 103.638C127.996 102.184 126.42 101.343 124.424 101.217C124.317 101.212 124.214 101.207 124.11 101.202ZM62.793 78.7158C62.2562 78.7145 61.7194 78.7144 61.1826 78.7168C60.6128 78.7194 60.0425 78.7206 59.4727 78.7207C58.5179 78.7209 57.5632 78.7224 56.6084 78.7256C55.3741 78.7298 54.1396 78.7318 52.9053 78.7324C51.8346 78.733 50.764 78.7343 49.6934 78.7363C49.3514 78.737 49.0089 78.7379 48.667 78.7383C48.1204 78.7389 47.5739 78.7403 47.0273 78.7422C46.8263 78.743 46.6248 78.7435 46.4238 78.7441C46.2289 78.7443 46.0388 78.745 45.8496 78.7451C45.6723 78.746 45.5002 78.7462 45.3281 78.7471C44.7348 78.7488 44.3081 78.7788 43.7783 79.0693C43.2512 79.5645 42.9348 80.1544 42.8496 80.877C42.839 81.8032 43.0259 82.4212 43.623 83.1563C44.3575 83.497 44.9652 83.6465 45.7715 83.6582C45.8935 83.6578 46.0124 83.6567 46.1309 83.6563C46.5362 83.6602 46.9414 83.6643 47.3467 83.665C47.6356 83.6655 47.9249 83.6659 48.2139 83.668C48.973 83.6745 49.7321 83.6805 50.4912 83.6836C51.733 83.6885 52.975 83.6961 54.2168 83.7051C54.6533 83.7083 55.0898 83.7112 55.5264 83.7129C55.8019 83.7139 56.078 83.7152 56.3535 83.7168C56.4839 83.7176 56.6108 83.718 56.7373 83.7188C57.1461 83.7193 57.5513 83.7265 57.96 83.7422C58.4052 83.9648 58.6614 84.2397 58.9844 84.6191C59.3489 85.6134 59.3619 86.5284 58.9658 87.5186C58.458 88.1109 57.8935 88.3913 57.1357 88.4981C56.8464 88.4994 56.8459 88.4997 56.5625 88.501C56.2295 88.505 55.8965 88.5082 55.5635 88.5078C55.3263 88.5075 55.0888 88.508 54.8516 88.5098C54.2282 88.5159 53.6049 88.52 52.9814 88.5215C51.9617 88.5238 50.9416 88.5314 49.9219 88.5391C49.5635 88.5418 49.2051 88.5439 48.8467 88.5449C48.6206 88.5455 48.394 88.5458 48.168 88.5469C48.0089 88.5477 48.0084 88.5481 47.8525 88.5488C47.5156 88.5497 47.1784 88.5546 46.8418 88.5693C46.3072 88.8366 45.925 89.2639 45.626 89.7764C45.3803 90.7592 45.443 91.6341 45.9639 92.5195C46.597 93.0685 47.0773 93.1738 47.8838 93.1856C48.0221 93.1846 48.1567 93.1836 48.291 93.1826C48.7465 93.1867 49.2018 93.1898 49.6572 93.1895C49.9827 93.1891 50.3084 93.1896 50.6338 93.1914C51.4879 93.1975 52.3422 93.2017 53.1963 93.2031C54.5933 93.2054 55.9907 93.213 57.3877 93.2207C57.8789 93.2234 58.3701 93.2255 58.8613 93.2266C59.1717 93.2271 59.4826 93.2274 59.793 93.2285C60.0111 93.2293 60.0115 93.2297 60.2256 93.2305C60.4321 93.2304 60.4323 93.2306 60.6348 93.2305C60.7622 93.2311 60.8861 93.2309 61.0098 93.2315C61.4962 93.2323 61.8787 93.2564 62.2764 93.5713C62.7003 94.0836 62.9186 94.5646 62.9873 95.2275C62.9836 95.4945 62.9832 95.495 62.9795 95.7568C62.978 96.2269 62.9763 96.6332 62.8311 97.0811C62.4755 97.5816 62.1025 97.8992 61.4912 98.0059C61.3319 98.0058 61.177 98.0059 61.0225 98.0059C60.7461 98.008 60.4697 98.0098 60.1934 98.0078C59.991 98.0063 59.7883 98.0053 59.5859 98.0059C59.1494 98.0081 58.7129 98.0106 58.2764 98.0098C57.5743 98.0075 56.872 98.0063 56.1699 98.0088C54.8058 98.0139 53.4413 98.0149 52.0771 98.0147C50.3232 98.0143 48.5693 98.0152 46.8154 98.0205C46.1091 98.0229 45.4026 98.0251 44.6963 98.0234C44.2497 98.0223 43.803 98.0222 43.3564 98.0234C43.1485 98.0242 42.9404 98.025 42.7324 98.0254C42.5365 98.0242 42.3405 98.0226 42.1445 98.0215C41.9606 98.0225 41.782 98.0234 41.6035 98.0244C41.0537 98.0241 40.7251 98.0663 40.2168 98.2861C39.6158 98.6356 39.3322 99.0419 39.0879 99.6885C38.9851 100.555 38.9788 101.22 39.4814 101.946C39.9591 102.476 40.4316 102.727 41.1426 102.815C41.3824 102.816 41.3828 102.816 41.6182 102.816C41.8027 102.818 41.9821 102.82 42.1611 102.821C42.4538 102.821 42.7464 102.82 43.0391 102.822C43.773 102.829 44.5072 102.832 45.2412 102.834C45.8748 102.836 46.509 102.837 47.1426 102.843C47.3427 102.845 47.5431 102.846 47.7432 102.848C48.0365 102.847 48.0366 102.846 48.3242 102.846C48.5977 102.848 48.5982 102.848 48.8662 102.851C49.3343 102.841 49.3345 102.841 49.7676 102.906C50.2367 103.137 50.4614 103.292 50.7646 103.721C51.0514 104.551 51.029 105.333 50.8096 106.18C50.7536 106.31 50.6998 106.438 50.6455 106.564C50.5638 106.898 50.5633 106.899 50.3525 107.149C49.5931 107.441 48.8973 107.477 48.0879 107.481C47.9226 107.481 47.762 107.48 47.6016 107.479C47.2465 107.481 46.8912 107.481 46.5361 107.482C45.8594 107.482 45.1826 107.483 44.5059 107.485C42.8428 107.493 41.1796 107.496 39.5166 107.497C38.5873 107.498 37.6578 107.499 36.7285 107.504C36.3353 107.506 35.942 107.509 35.5488 107.51C34.9838 107.509 34.4185 107.507 33.8535 107.51C33.6773 107.511 33.506 107.512 33.335 107.513C32.5559 107.507 31.7829 107.425 31.1025 107.856C30.544 108.356 30.2234 108.817 30.1074 109.553C30.0673 110.433 30.2079 110.987 30.749 111.685C31.204 111.961 31.552 112.114 32.082 112.179C32.3319 112.179 32.3323 112.179 32.5771 112.18C32.8691 112.182 33.1612 112.184 33.4531 112.183C33.6667 112.182 33.8811 112.183 34.0947 112.184C34.5559 112.186 35.0173 112.188 35.4785 112.188C36.2194 112.188 36.9603 112.189 37.7012 112.192C39.1408 112.199 40.5808 112.202 42.0205 112.204C43.8727 112.207 45.725 112.212 47.5771 112.219C48.3229 112.222 49.0687 112.224 49.8145 112.225C50.2858 112.225 50.7572 112.226 51.2285 112.228C51.4477 112.228 51.6675 112.229 51.8867 112.229C52.094 112.229 52.3015 112.229 52.5088 112.229C52.7024 112.23 52.8902 112.23 53.0781 112.231C53.5722 112.232 53.9506 112.25 54.4199 112.404C55.0034 112.69 55.2503 113.135 55.4727 113.732C55.5983 114.696 55.6478 115.709 55.0342 116.513C54.6368 116.803 54.3625 116.943 53.8721 117.009C53.7088 117.01 53.5501 117.011 53.3916 117.012C53.1126 117.015 52.8337 117.02 52.5547 117.021C52.3556 117.021 52.1561 117.022 51.957 117.024C51.4342 117.031 50.9115 117.036 50.3887 117.039C49.5336 117.044 48.6783 117.052 47.8232 117.061C47.5226 117.064 47.2216 117.067 46.9209 117.068C46.822 117.069 46.7259 117.069 46.6299 117.069C46.4453 117.071 46.266 117.073 46.0869 117.074C45.6448 117.077 45.3343 117.047 44.9395 117.244C44.3347 117.74 44.0487 118.204 43.833 118.94C43.6672 119.851 43.84 120.715 44.3545 121.486C44.9232 121.974 44.9234 121.974 46.2432 121.981C46.4022 121.98 46.5566 121.979 46.7109 121.978C47.232 121.978 47.7533 121.978 48.2744 121.976C48.647 121.974 49.02 121.973 49.3926 121.973C50.2682 121.972 51.1439 121.971 52.0195 121.968C53.0309 121.964 54.0424 121.961 55.0537 121.96C55.7408 121.96 56.4281 121.958 57.1152 121.957C57.4904 121.956 57.866 121.956 58.2412 121.955C58.7831 121.954 59.3253 121.953 59.8672 121.951C60.1162 121.95 60.1164 121.95 60.3604 121.949C60.5206 121.949 60.6765 121.948 60.832 121.948C60.977 121.947 61.1181 121.946 61.2588 121.945C61.476 121.945 61.6934 121.94 61.9102 121.925C62.0563 121.779 62.0561 121.779 62.1406 121.468C62.3244 120.681 62.5265 119.904 62.7578 119.13C63.0048 118.308 63.2446 117.487 63.4492 116.654C63.6437 115.852 63.8473 115.057 64.083 114.266C64.2938 113.564 64.5043 112.864 64.6846 112.154C64.9411 111.094 65.2115 110.039 65.5059 108.988C65.5517 108.826 65.5962 108.669 65.6406 108.512C65.9176 107.5 66.0934 106.52 67.0459 105.936C67.3379 105.81 67.6266 105.688 67.9082 105.54C68.071 105.214 68.0713 105.214 68.2607 104.49C68.2886 104.382 68.3157 104.278 68.3428 104.173C68.4021 103.945 68.4611 103.718 68.5205 103.49C68.6836 102.863 68.8474 102.236 69.0117 101.608C69.0463 101.477 69.0797 101.349 69.1133 101.221C69.4154 100.069 69.7241 98.9188 70.0391 97.7705C70.2538 96.9888 70.4676 96.2069 70.6807 95.4248C70.7329 95.233 70.7833 95.0465 70.834 94.8604C70.9847 94.3069 71.1354 93.7535 71.2832 93.1992C71.3296 93.0244 71.3739 92.8543 71.4189 92.6846C71.7264 91.5549 71.9465 90.4722 72.0049 89.3008C72.0948 86.2155 71.4231 83.4418 69.2598 81.125C67.6435 79.6172 65.8653 78.7223 63.6611 78.7119C63.3719 78.714 63.0822 78.716 62.793 78.7158ZM60.0088 70.4287C59.73 70.9862 59.8571 71.5978 60.0088 72.1846C61.0255 73.8821 61.0253 73.8827 65.2861 75.9961C67.0419 76.8626 68.7481 77.7971 70.2969 79.0039C71.9386 80.364 73.42 82.3068 73.6445 84.4795C73.6542 84.5917 73.6634 84.7007 73.6729 84.8096C73.6935 85.0357 73.7135 85.262 73.7324 85.4883C73.7422 85.703 73.7558 85.9176 73.7725 86.1318C73.9068 86.6673 73.9067 86.6678 74.3564 86.9609C74.5019 87.0105 74.643 87.0584 74.7842 87.1065C74.6771 87.5197 74.57 87.9334 74.4629 88.3467C74.3943 88.6114 74.3944 88.6116 74.3271 88.8711C74.1925 89.3909 74.0578 89.911 73.9229 90.4307C73.8687 90.6392 73.8139 90.8481 73.7598 91.0566C73.2961 92.8445 72.827 94.6308 72.3535 96.416C72.1594 97.1479 71.9662 97.8803 71.7725 98.6123C71.6058 99.2421 71.4389 99.8723 71.2715 100.502C71.1038 101.132 70.9361 101.763 70.7695 102.394C70.7063 102.633 70.6434 102.873 70.5801 103.112C70.4898 103.45 70.3988 103.788 70.3096 104.127C70.2816 104.233 70.2547 104.336 70.2275 104.439C70.0726 105.024 69.9415 105.595 69.8662 106.194C69.8379 106.455 69.8383 106.455 69.8105 106.71C69.3391 106.677 68.9928 106.687 68.5488 106.856C67.7663 107.515 67.7653 107.516 67.2598 109.786C67.0808 110.595 66.8805 111.396 66.665 112.196C66.465 112.933 66.2772 113.671 66.1035 114.414C65.7651 115.867 65.4083 117.314 65.0449 118.761C64.9779 119.028 64.9106 119.295 64.8438 119.562C64.6879 120.184 64.5321 120.806 64.376 121.428C64.3335 121.597 64.2922 121.761 64.251 121.925C65.4098 121.928 66.5687 121.931 67.7275 121.933C68.3179 121.933 68.9087 121.934 69.499 121.936C70.0778 121.937 70.6566 121.938 71.2354 121.938C71.4549 121.939 71.675 121.939 71.8945 121.939C72.2119 121.941 72.5293 121.941 72.8467 121.941C72.9929 121.941 72.9933 121.941 73.1367 121.941C73.4421 121.942 73.7477 121.939 74.0527 121.925C74.1989 121.779 74.1995 121.779 74.3096 121.395C74.3761 121.13 74.4427 120.866 74.5098 120.602C74.5349 120.502 74.5586 120.406 74.583 120.31C74.9461 118.868 75.3084 117.426 75.7207 115.997C76.0275 114.945 76.3314 113.891 76.6201 112.833C76.6611 112.682 76.7014 112.535 76.7412 112.389C77.0425 111.321 77.3987 110.122 77.0146 109.031C76.8095 108.635 76.6643 108.36 76.2266 108.22C76.1342 108.204 76.0447 108.188 75.9551 108.173C76.3043 107.236 76.5789 106.29 76.8164 105.32C77.3567 103.1 77.9499 100.894 78.5449 98.6875C78.6588 98.2652 78.7722 97.8424 78.8857 97.4199C79.653 94.5642 80.4313 91.7117 81.2217 88.8623C81.8991 88.8014 82.2507 88.8711 82.7158 88.3584C83.054 87.7456 83.3979 87.1508 83.8564 86.6201C86.4819 84.1548 90.2213 83.8785 93.6416 83.8848C93.854 83.8857 93.8543 83.8859 94.0625 83.8867C94.7782 83.8895 95.4943 83.8923 96.21 83.9043C97.8736 83.9337 99.7534 84.0816 101.279 83.29C101.802 82.9025 101.997 82.4607 102.142 81.8399C101.849 81.6936 101.849 81.6933 101.451 81.5772C101.276 81.5295 101.105 81.4837 100.935 81.4375C100.63 81.3545 100.325 81.2719 100.02 81.1895C99.7952 81.1288 99.571 81.0677 99.3467 81.0068C98.7339 80.8404 98.1207 80.6737 97.5078 80.5078C96.9796 80.3649 96.451 80.2223 95.9229 80.0791C91.508 78.8818 87.0918 77.6895 82.6748 76.5C79.8184 75.7308 76.9618 74.9607 74.1074 74.1836C73.8375 74.1101 73.5677 74.0363 73.2979 73.9629C72.1432 73.6487 70.9883 73.3349 69.834 73.0195C66.5661 72.1268 63.2921 71.2628 60.0088 70.4287ZM95.4609 101.281C95.2496 101.281 95.0381 101.284 94.8271 101.298C94.681 101.444 94.6802 101.444 94.6016 101.728C94.5725 101.856 94.5448 101.98 94.5166 102.104C94.4834 102.249 94.4512 102.391 94.4189 102.531C94.3835 102.689 94.3489 102.841 94.3145 102.994C94.2034 103.481 94.0927 103.968 93.9824 104.455C93.9056 104.795 93.8282 105.134 93.751 105.474C93.6401 105.961 93.5287 106.448 93.418 106.935C93.3 107.455 93.1858 107.961 93.0713 108.466H86.9268C87.0884 107.807 87.2454 107.167 87.4023 106.527C87.8312 104.791 88.1849 103.054 88.5361 101.298H81.6602C81.5772 101.547 81.4982 101.797 81.4326 102.051C81.4022 102.176 81.3723 102.299 81.3428 102.421C81.3081 102.564 81.2749 102.702 81.2412 102.841C81.2038 102.996 81.1671 103.147 81.1309 103.297C81.0533 103.618 80.9759 103.939 80.8984 104.261C80.7772 104.765 80.6555 105.269 80.5332 105.773C80.1603 107.311 79.7786 108.844 79.501 110.402C79.4156 110.907 79.3244 111.377 79.168 111.864C79.0269 112.27 79.0266 112.27 78.9277 112.728C78.7502 113.685 78.5529 114.635 78.3262 115.582C78.0833 116.588 77.8398 117.594 77.6113 118.604C77.586 118.716 77.5607 118.826 77.5361 118.936C77.3167 119.896 77.3166 119.896 76.9785 121.925H83.8545C84.1055 120.921 84.3714 119.92 84.5771 118.905C84.7289 118.023 84.8926 117.151 85.1162 116.283C85.1874 116.019 85.2546 115.754 85.3174 115.488C85.3671 115.14 85.4156 114.802 85.4639 114.464H91.7549C91.5915 114.791 91.591 114.791 91.3945 115.622C91.3661 115.744 91.3391 115.863 91.3115 115.981C91.2526 116.234 91.1935 116.487 91.1348 116.739C91.0429 117.136 90.9509 117.534 90.8574 117.931C90.7965 118.189 90.7358 118.447 90.6758 118.706C90.6463 118.834 90.6175 118.957 90.5889 119.081C90.3645 120.027 90.2225 120.955 90.1455 121.925C90.9404 121.928 91.7353 121.931 92.5303 121.933C92.8538 121.933 93.1774 121.934 93.501 121.935C93.9795 121.936 94.458 121.938 94.9365 121.938C95.0902 121.939 95.2395 121.939 95.3887 121.939C95.5394 121.94 95.6857 121.941 95.832 121.941C95.9707 121.941 96.1056 121.941 96.2402 121.941C96.4518 121.942 96.6639 121.938 96.875 121.925C97.0369 121.763 97.0375 121.763 97.1982 121.021C97.2469 120.791 97.296 120.562 97.3457 120.333C97.3736 120.206 97.4007 120.082 97.4277 119.958C97.5816 119.254 97.7421 118.551 97.9053 117.85C97.9595 117.617 97.9596 117.617 98.0127 117.39C98.0877 117.068 98.1633 116.746 98.2383 116.424C98.6409 114.697 99.0413 112.97 99.4414 111.243C99.4642 111.145 99.4866 111.049 99.5088 110.953C99.7781 109.791 100.046 108.628 100.313 107.465C100.398 107.095 100.484 106.724 100.569 106.354C100.692 105.825 100.813 105.296 100.935 104.767C100.973 104.601 101.01 104.439 101.047 104.278C101.278 103.284 101.464 102.315 101.557 101.298C100.762 101.295 99.9667 101.292 99.1719 101.29C98.8485 101.289 98.5246 101.289 98.2012 101.288C97.7228 101.286 97.244 101.285 96.7656 101.284C96.5374 101.284 96.537 101.284 96.3135 101.283C96.1626 101.282 96.0156 101.282 95.8691 101.281C95.7304 101.281 95.5956 101.281 95.4609 101.281ZM103.751 101.298C103.605 101.59 103.605 101.591 103.504 101.98C103.464 102.152 103.425 102.319 103.386 102.485C103.316 102.783 103.246 103.08 103.177 103.377C103.126 103.595 103.075 103.814 103.024 104.032C102.915 104.501 102.806 104.97 102.696 105.439C102.551 106.064 102.406 106.688 102.26 107.313C101.592 110.168 100.93 113.026 100.279 115.886C100.247 116.027 100.216 116.164 100.185 116.302C100.096 116.694 100.007 117.086 99.918 117.478C99.8895 117.603 99.8616 117.726 99.834 117.848C99.6012 118.874 99.6009 118.874 98.9229 121.925H105.945C106.277 120.398 106.6 118.869 106.979 117.354C107.143 116.709 107.298 116.065 107.431 115.412C107.716 114.002 108.037 112.601 108.361 111.199C108.416 110.964 108.471 110.728 108.525 110.492C108.752 109.515 108.978 108.537 109.205 107.561C109.348 106.946 109.492 106.331 109.634 105.716C109.688 105.482 109.743 105.247 109.797 105.013C109.874 104.682 109.952 104.351 110.028 104.021C110.052 103.916 110.075 103.814 110.099 103.713C110.289 102.894 110.386 102.147 110.48 101.298H103.751ZM33.3057 117.011C31.8982 116.987 30.9561 117.235 30.4561 118.707C30.3548 119.569 30.364 120.328 30.8955 121.048C31.606 121.554 32.1117 121.7 32.9795 121.703C33.1139 121.7 33.2445 121.698 33.375 121.695C33.8008 121.694 34.2266 121.691 34.6523 121.685C34.9463 121.68 35.2402 121.677 35.5342 121.676C35.8225 121.675 36.1111 121.673 36.3994 121.671C36.5398 121.67 36.6763 121.668 36.8125 121.667C36.9478 121.666 37.0796 121.665 37.2109 121.664C37.3985 121.661 37.3991 121.661 37.583 121.658C38.0112 121.652 38.3847 121.613 38.7949 121.486C39.4629 121.095 39.694 120.661 39.9014 119.941C40.0418 119.164 39.9752 118.524 39.5635 117.848C38.8668 117.19 38.3557 117.046 37.416 117.029C37.2713 117.029 37.1307 117.029 36.9902 117.029C36.6899 117.027 36.3892 117.025 36.0889 117.023C35.6174 117.024 35.1462 117.025 34.6748 117.019C34.3664 117.014 34.0575 117.012 33.749 117.011C33.5983 117.011 33.4519 117.011 33.3057 117.011ZM143.104 108.612C143.409 109.069 143.461 109.378 143.52 109.915C143.531 110.032 143.542 110.145 143.553 110.258C143.678 111.463 143.768 112.669 143.836 113.879L143.251 113.294C143.021 113.567 142.892 113.718 142.534 113.782C142.429 113.78 142.327 113.778 142.226 113.775C142.112 113.774 142 113.773 141.89 113.771C141.771 113.768 141.656 113.763 141.541 113.76C141.136 113.753 140.731 113.744 140.325 113.732C140.303 113.422 140.302 113.421 140.496 113.112C140.575 112.981 140.651 112.854 140.728 112.727C140.878 112.472 141.037 112.221 141.203 111.977C141.401 111.785 141.597 111.59 141.788 111.392C141.758 110.971 141.758 110.971 141.909 110.688C141.994 110.542 141.994 110.542 142.076 110.398C142.137 110.291 142.196 110.186 142.256 110.082C142.321 109.971 142.384 109.863 142.446 109.755C142.665 109.373 142.884 108.993 143.104 108.612ZM24.7871 107.323C23.6833 106.92 22.7161 107.109 21.7842 107.796C21.2767 108.262 21.0015 108.827 20.9023 109.507C20.874 110.392 21.1006 110.95 21.6328 111.63C22.2082 112.271 22.7957 112.525 23.6533 112.617C24.437 112.533 24.9827 112.292 25.5918 111.794C26.2687 110.967 26.4593 110.236 26.3604 109.197C26.0447 108.35 25.5364 107.817 24.7871 107.323ZM121.406 106.843C121.867 106.841 122.211 106.797 122.623 107.003C123.03 107.313 123.32 107.542 123.412 108.061C123.426 108.866 123.285 109.219 122.761 109.855C121.843 110.637 120.823 110.71 119.65 110.699C119.489 110.695 119.332 110.691 119.176 110.688C118.618 110.681 118.061 110.673 117.503 110.66C117.491 110.281 117.502 109.937 117.57 109.563C117.602 109.435 117.632 109.31 117.663 109.186C117.697 109.045 117.73 108.909 117.763 108.772C117.799 108.628 117.833 108.487 117.868 108.347C117.989 107.85 118.111 107.353 118.234 106.856C118.715 106.853 119.195 106.851 119.676 106.85C119.872 106.849 120.068 106.848 120.264 106.848C120.462 106.846 120.656 106.845 120.849 106.844C121.13 106.843 121.13 106.843 121.406 106.843ZM31.7109 98.0166C31.4164 98.0176 31.1217 98.019 30.8271 98.0205C30.3655 98.027 29.904 98.0336 29.4424 98.0361C29.1394 98.0373 28.8362 98.038 28.5332 98.04C28.3858 98.0413 28.2427 98.0428 28.0996 98.044C27.9569 98.0451 27.8182 98.0458 27.6797 98.0469C27.5475 98.0488 27.4193 98.0509 27.291 98.0527C26.872 98.0581 26.6191 98.0905 26.2139 98.2256C25.6244 98.7335 25.2388 99.4186 25.1475 100.193C25.1388 101.09 25.3197 101.49 25.9209 102.175C26.4996 102.645 27 102.668 27.7168 102.679C27.9272 102.678 27.9276 102.678 28.1338 102.678C28.4273 102.679 28.7211 102.681 29.0146 102.682C29.4756 102.68 29.9365 102.678 30.3975 102.683C30.6989 102.686 31.0003 102.687 31.3018 102.688C31.5208 102.687 31.5216 102.687 31.7363 102.687C32.2429 102.693 32.7356 102.697 33.2363 102.614C33.9358 102.24 34.3576 101.874 34.6992 101.151C34.8176 100.259 34.8197 99.4046 34.2598 98.6641C33.5352 98.1436 33.0146 98.0117 32.1279 98.0088C31.9864 98.0114 31.8483 98.014 31.7109 98.0166ZM109.795 93.4609C108.285 92.7991 106.709 93.274 105.507 94.2754C104.883 95.0291 104.655 95.8375 104.609 96.8047C104.653 97.6988 104.938 98.5356 105.562 99.1982C106.519 99.9969 107.472 100.243 108.708 100.188C109.757 100.048 110.53 99.6518 111.18 98.8086C111.794 97.8068 111.894 96.8341 111.724 95.6836C111.341 94.7585 110.659 93.9782 109.795 93.4609ZM40.2217 88.3594C39.147 87.8326 38.0922 87.8682 37.0947 88.5332C36.5447 89.0543 36.1951 89.417 36.1162 90.1992C36.0993 91.2064 36.1075 91.8309 36.7842 92.6016C37.4377 93.1808 37.9421 93.4229 38.8135 93.4434C39.7385 93.439 40.3454 93.0197 40.9902 92.3731C41.5344 91.611 41.5633 90.7906 41.4287 89.8867C41.1824 89.2289 40.8108 88.7439 40.2217 88.3594ZM33.6934 78.4356C32.5682 78.0509 31.4055 78.2427 30.5752 79.0967C30.0455 79.9003 29.7672 80.5782 29.8711 81.5479C30.1366 82.438 30.5715 82.9499 31.334 83.4492C32.092 83.7925 32.6857 83.7589 33.4756 83.5684C34.2277 83.3085 34.6648 82.8355 35.0469 82.1602C35.3822 81.4197 35.395 80.7723 35.1748 79.9834C34.8072 79.3034 34.3879 78.8039 33.6934 78.4356ZM60.4473 68.6729C60.2945 69.1312 60.3106 69.257 60.4473 69.6973C67.5315 71.6425 74.6154 73.5897 81.7012 75.5293C82.0151 75.6152 82.3296 75.7012 82.6436 75.7871C82.8564 75.8454 83.0693 75.9036 83.2822 75.9619C84.7926 76.3753 86.3034 76.7893 87.8135 77.2041C89.081 77.5523 90.3486 77.9003 91.6162 78.2481C92.4019 78.4636 93.188 78.6795 93.9736 78.8955C94.717 79.1 95.4606 79.304 96.2041 79.5078C96.4826 79.5841 96.7615 79.6609 97.04 79.7373C98.8307 80.2308 100.623 80.6969 102.435 81.1084C102.635 80.5778 102.764 80.3429 102.58 79.792C102.126 79.6234 102.125 79.6234 101.825 79.542C101.711 79.513 101.6 79.4842 101.488 79.4561C101.237 79.3891 100.985 79.3227 100.733 79.2559C100.297 79.1428 99.8606 79.0292 99.4248 78.9141C98.7488 78.7345 98.0728 78.5553 97.3965 78.377C95.9091 77.9847 94.4234 77.5857 92.9385 77.1846C92.8024 77.1478 92.6702 77.1119 92.5381 77.0762C91.8538 76.8913 91.1696 76.7064 90.4854 76.5215C89.0777 76.141 87.6696 75.7606 86.2617 75.3809C86.1186 75.3423 85.9797 75.305 85.8408 75.2676C83.9775 74.765 82.1133 74.2648 80.248 73.7695C79.5452 73.583 78.8423 73.3961 78.1396 73.209C77.4907 73.0361 76.8409 72.8633 76.1914 72.6924C75.8863 72.6121 75.5813 72.5312 75.2764 72.4502C74.9966 72.3756 74.7163 72.3011 74.4365 72.2266C74.2592 72.1803 74.0871 72.1357 73.915 72.0908C73.7558 72.0481 73.6009 72.0063 73.4463 71.9649C73.0527 71.8678 73.0524 71.8673 72.7363 71.7451C72.5902 71.4528 72.5896 71.4531 72.3037 71.3486C72.1756 71.3162 72.0511 71.2845 71.9268 71.2529C71.7125 71.1979 71.7121 71.1976 71.502 71.1436C71.3496 71.1057 71.2016 71.069 71.0537 71.0322C70.2539 70.8271 69.4527 70.6274 68.6484 70.4404C67.6784 70.2152 66.71 69.9863 65.7471 69.7324C65.6346 69.7026 65.5252 69.6735 65.416 69.6445C64.9758 69.5283 64.5357 69.412 64.0957 69.2949C63.7594 69.2042 63.4228 69.114 63.0859 69.0254C62.9236 68.9828 62.9238 68.9822 62.7646 68.9404C61.9731 68.723 61.2653 68.6462 60.4473 68.6729Z" fill="white"/>
<path d="M45.3279 78.7472C45.5002 78.7464 45.6725 78.7456 45.85 78.7447C46.0392 78.7445 46.2284 78.7444 46.4234 78.7442C46.6246 78.7435 46.8257 78.7428 47.0269 78.742C47.5737 78.7401 48.1206 78.7392 48.6674 78.7385C49.0093 78.7381 49.3513 78.7375 49.6932 78.7368C50.7639 78.7348 51.8346 78.7334 52.9053 78.7328C54.1396 78.7322 55.3739 78.7296 56.6082 78.7254C57.5632 78.7222 58.5181 78.7207 59.4731 78.7205C60.043 78.7204 60.6128 78.7195 61.1827 78.7169C61.7195 78.7145 62.2562 78.7142 62.793 78.7155C63.0822 78.7156 63.3714 78.7136 63.6607 78.7116C65.8651 78.7218 67.6434 79.6171 69.2598 81.1251C71.4233 83.442 72.0946 86.2157 72.0046 89.3011C71.9462 90.4725 71.7269 91.5546 71.4194 92.6842C71.3743 92.8541 71.3292 93.0239 71.2827 93.1989C71.1349 93.7532 70.985 94.3069 70.8342 94.8604C70.7836 95.0466 70.7329 95.2328 70.6807 95.4246C70.4676 96.2069 70.2541 96.9891 70.0393 97.771C69.7244 98.9193 69.4156 100.069 69.1135 101.221C69.08 101.349 69.0465 101.477 69.0119 101.608C68.8476 102.235 68.6839 102.863 68.5207 103.49C68.4614 103.718 68.402 103.945 68.3426 104.172C68.3156 104.277 68.2885 104.382 68.2606 104.49C68.0711 105.214 68.0711 105.214 67.9083 105.54C67.6267 105.688 67.3381 105.811 67.046 105.936C66.0935 106.521 65.9177 107.499 65.6407 108.512C65.5962 108.669 65.5518 108.826 65.5059 108.989C65.2115 110.039 64.9407 111.094 64.6841 112.155C64.5038 112.865 64.2942 113.565 64.0834 114.266C63.8477 115.057 63.644 115.853 63.4495 116.654C63.2449 117.488 63.0048 118.308 62.7578 119.13C62.5265 119.903 62.3249 120.681 62.141 121.468C62.0565 121.779 62.0565 121.779 61.9102 121.925C61.6934 121.94 61.476 121.945 61.2588 121.946C61.1181 121.947 60.9774 121.947 60.8324 121.948C60.6768 121.948 60.5211 121.949 60.3608 121.949C60.1164 121.95 60.1164 121.95 59.867 121.951C59.3251 121.953 58.7832 121.954 58.2413 121.955C57.8661 121.956 57.4909 121.957 57.1156 121.957C56.4284 121.959 55.7412 121.96 55.0539 121.96C54.0425 121.961 53.0311 121.963 52.0197 121.968C51.144 121.971 50.2683 121.972 49.3925 121.973C49.0199 121.973 48.6473 121.974 48.2747 121.976C47.7535 121.979 47.2324 121.978 46.7112 121.977C46.5568 121.979 46.4023 121.98 46.2432 121.981C44.9233 121.974 44.9233 121.974 44.3546 121.486C43.8401 120.715 43.6675 119.851 43.8334 118.94C44.0492 118.204 44.3348 117.74 44.9398 117.244C45.3347 117.046 45.6445 117.077 46.0866 117.074C46.2658 117.073 46.4451 117.071 46.6297 117.07C46.7257 117.069 46.8218 117.069 46.9208 117.068C47.2215 117.067 47.5222 117.064 47.823 117.06C48.6781 117.051 49.5332 117.044 50.3884 117.039C50.9114 117.036 51.4344 117.03 51.9574 117.024C52.1564 117.022 52.3555 117.021 52.5546 117.02C52.8336 117.019 53.1127 117.016 53.3917 117.012C53.5504 117.011 53.709 117.01 53.8724 117.008C54.363 116.943 54.6367 116.802 55.0342 116.512C55.6479 115.708 55.5988 114.696 55.4731 113.733C55.2508 113.135 55.0033 112.69 54.4197 112.405C53.9503 112.25 53.5724 112.233 53.0784 112.232C52.8903 112.231 52.7022 112.23 52.5084 112.229C52.3011 112.229 52.0937 112.23 51.8863 112.23C51.6671 112.229 51.4479 112.229 51.2287 112.228C50.7573 112.226 50.2858 112.225 49.8144 112.225C49.0686 112.225 48.3229 112.222 47.5772 112.219C45.725 112.212 43.8727 112.207 42.0205 112.204C40.5809 112.202 39.1412 112.198 37.7015 112.192C36.9605 112.189 36.2194 112.188 35.4784 112.188C35.017 112.188 34.5557 112.186 34.0944 112.183C33.8808 112.182 33.6671 112.182 33.4535 112.183C33.1614 112.184 32.8693 112.182 32.5772 112.18C32.3323 112.179 32.3323 112.179 32.0824 112.179C31.5521 112.114 31.2042 111.961 30.7491 111.684C30.2079 110.987 30.0677 110.433 30.1079 109.553C30.2238 108.817 30.5443 108.356 31.1029 107.857C31.7833 107.426 32.5561 107.507 33.3352 107.513C33.5063 107.512 33.6775 107.511 33.8538 107.51C34.4188 107.507 34.9838 107.508 35.5488 107.509C35.942 107.508 36.3352 107.506 36.7283 107.504C37.6576 107.5 38.5869 107.498 39.5162 107.497C41.1794 107.496 42.8425 107.492 44.5056 107.485C45.1825 107.482 45.8594 107.482 46.5362 107.482C46.8913 107.481 47.2463 107.48 47.6014 107.479C47.7618 107.48 47.9223 107.48 48.0876 107.481C48.8973 107.477 49.5931 107.441 50.3528 107.149C50.5636 106.898 50.5636 106.898 50.6454 106.564C50.6997 106.437 50.754 106.311 50.8099 106.18C51.0295 105.333 51.0512 104.551 50.7642 103.72C50.461 103.292 50.2367 103.138 49.7676 102.907C49.3343 102.841 49.3343 102.841 48.8658 102.85C48.5978 102.848 48.5978 102.848 48.3243 102.846C48.0365 102.847 48.0365 102.847 47.7429 102.847C47.5426 102.846 47.3424 102.844 47.1422 102.842C46.5087 102.837 45.8751 102.835 45.2415 102.834C44.5075 102.832 43.7734 102.829 43.0394 102.822C42.7465 102.82 42.4537 102.82 42.1608 102.821C41.9816 102.82 41.8025 102.818 41.6179 102.817C41.3824 102.816 41.3824 102.816 41.1422 102.816C40.4312 102.727 39.9588 102.476 39.4811 101.947C38.9784 101.22 38.9851 100.555 39.0879 99.6882C39.3323 99.0416 39.6161 98.636 40.2171 98.2866C40.7254 98.0667 41.0533 98.0242 41.6032 98.0245C41.7818 98.0235 41.9604 98.0225 42.1445 98.0215C42.3405 98.0226 42.5365 98.0238 42.7325 98.0249C42.9405 98.0246 43.1484 98.024 43.3563 98.0233C43.803 98.022 44.2496 98.0222 44.6962 98.0233C45.4026 98.025 46.1089 98.0232 46.8153 98.0209C48.5694 98.0156 50.3235 98.0146 52.0776 98.015C53.4418 98.0153 54.8059 98.0142 56.1701 98.0092C56.8721 98.0067 57.5742 98.007 58.2762 98.0093C58.713 98.0101 59.1497 98.0086 59.5864 98.0063C59.7887 98.0058 59.9911 98.0062 60.1934 98.0078C60.4699 98.0097 60.7463 98.0077 61.0228 98.0056C61.1774 98.0056 61.332 98.0056 61.4913 98.0057C62.1026 97.899 62.4753 97.5817 62.8308 97.0811C62.9761 96.633 62.9784 96.2268 62.98 95.7564C62.9836 95.4945 62.9836 95.4945 62.9874 95.2273C62.9187 94.5642 62.7 94.0836 62.2759 93.5711C61.8782 93.2563 61.4962 93.2327 61.0098 93.2319C60.8861 93.2313 60.7624 93.2307 60.635 93.2301C60.4322 93.2303 60.4322 93.2303 60.2253 93.2304C60.0111 93.2296 60.0111 93.2296 59.7927 93.2288C59.4823 93.2278 59.1719 93.227 58.8616 93.2264C58.3703 93.2254 57.879 93.2231 57.3877 93.2204C55.9907 93.2127 54.5937 93.2057 53.1967 93.2034C52.3425 93.202 51.4883 93.1977 50.6341 93.1915C50.3085 93.1897 49.983 93.189 49.6575 93.1893C49.2018 93.1897 48.7463 93.1864 48.2907 93.1824C48.1564 93.1833 48.0221 93.1843 47.8837 93.1853C47.0772 93.1735 46.597 93.0686 45.9639 92.5196C45.443 91.6341 45.3798 90.7594 45.6256 89.7766C45.9246 89.2639 46.3069 88.837 46.8416 88.5696C47.1783 88.5549 47.5154 88.5498 47.8524 88.5489C48.0084 88.5481 48.0084 88.5481 48.1675 88.5473C48.3937 88.5463 48.62 88.5455 48.8462 88.545C49.2048 88.5439 49.5634 88.5416 49.9219 88.5389C50.9416 88.5312 51.9613 88.5242 52.9811 88.522C53.6046 88.5205 54.2281 88.5162 54.8517 88.5101C55.0889 88.5083 55.3261 88.5075 55.5633 88.5078C55.8964 88.5082 56.2292 88.5049 56.5622 88.5009C56.8459 88.4996 56.8459 88.4996 57.1354 88.4983C57.8935 88.3915 58.4579 88.1108 58.966 87.5181C59.362 86.5279 59.3488 85.6139 58.9842 84.6196C58.6612 84.2401 58.4055 83.9645 57.9602 83.7419C57.5513 83.7262 57.1459 83.7193 56.7369 83.7188C56.6103 83.718 56.4837 83.7173 56.3533 83.7165C56.0777 83.715 55.8022 83.7137 55.5266 83.7127C55.0899 83.711 54.6533 83.7081 54.2166 83.7049C52.9748 83.6959 51.733 83.688 50.4911 83.6831C49.7319 83.6801 48.9727 83.6749 48.2135 83.6684C47.9246 83.6663 47.6357 83.6651 47.3467 83.6646C46.9412 83.6639 46.5358 83.6605 46.1304 83.6565C46.0119 83.6569 45.8935 83.6574 45.7714 83.6578C44.9652 83.6461 44.3576 83.4974 43.6231 83.1567C43.0258 82.4215 42.8394 81.8034 42.8499 80.8771C42.9352 80.1544 43.2514 79.5647 43.7786 79.0695C44.3083 78.779 44.7346 78.749 45.3279 78.7472Z" fill="#0F7FC1"/>
<path d="M124.111 101.202C124.214 101.207 124.317 101.211 124.424 101.216C126.42 101.342 127.996 102.184 129.353 103.638C130.46 105.283 130.494 107.534 130.129 109.432C129.996 109.862 129.84 110.255 129.645 110.66C129.587 110.784 129.528 110.907 129.468 111.035C128.538 112.762 126.994 114.041 125.256 114.903C124.835 115.007 124.835 115.007 124.525 115.049C124.578 115.136 124.631 115.223 124.686 115.313C125.07 115.946 125.445 116.582 125.796 117.235C126.223 118.026 126.671 118.806 127.122 119.584C127.193 119.707 127.263 119.83 127.336 119.956C127.609 120.426 127.881 120.888 128.182 121.34C128.751 120.555 129.281 119.77 129.741 118.916C130.111 118.248 130.521 117.603 130.925 116.954C131.127 116.629 131.328 116.303 131.53 115.977C132.4 114.568 133.275 113.162 134.153 111.758C135.125 110.205 135.125 110.205 136.086 108.645C136.32 108.263 136.556 107.881 136.792 107.5C136.94 107.261 137.087 107.022 137.234 106.784C137.304 106.671 137.374 106.559 137.446 106.444C137.718 106.001 137.964 105.592 138.15 105.106C138.192 105.008 138.234 104.91 138.277 104.809C138.422 104.76 138.567 104.712 138.716 104.662C138.821 104.422 138.917 104.177 139.008 103.931C139.195 103.611 139.387 103.294 139.584 102.98C139.685 102.818 139.786 102.657 139.89 102.491C140.033 102.262 140.033 102.262 140.179 102.029C140.241 101.9 140.304 101.772 140.368 101.64C140.618 101.297 140.618 101.297 140.969 101.208C141.108 101.21 141.247 101.211 141.39 101.212C141.548 101.212 141.706 101.211 141.868 101.211C142.123 101.216 142.123 101.216 142.383 101.221C142.558 101.222 142.732 101.222 142.912 101.223C143.47 101.226 144.028 101.234 144.586 101.243C144.963 101.245 145.341 101.247 145.718 101.249C146.406 101.254 147.095 101.259 147.783 101.269C147.921 101.271 148.06 101.273 148.203 101.275C148.518 101.297 148.518 101.297 148.664 101.444C148.765 101.912 148.854 102.381 148.941 102.852C149.001 103.361 149.001 103.361 149.249 103.784C149.291 104.085 149.315 104.387 149.34 104.69C149.386 105.032 149.451 105.352 149.529 105.687C149.7 106.448 149.823 107.213 149.942 107.983C149.965 108.132 149.988 108.281 150.012 108.434C150.087 108.917 150.162 109.4 150.237 109.883C150.341 110.557 150.446 111.231 150.55 111.905C150.589 112.157 150.589 112.157 150.629 112.414C150.79 113.448 150.955 114.482 151.125 115.514C151.185 115.882 151.245 116.249 151.305 116.616C151.342 116.841 151.379 117.065 151.417 117.289C151.685 118.883 151.82 120.457 151.882 122.071C151.258 122.384 150.426 122.245 149.733 122.245C149.426 122.245 149.118 122.248 148.811 122.251C148.615 122.251 148.418 122.251 148.222 122.251C147.955 122.252 147.955 122.252 147.682 122.253C147.214 122.219 146.89 122.126 146.469 121.925C146.421 122.07 146.373 122.215 146.323 122.364C146.323 122.219 146.323 122.074 146.323 121.925C146.218 121.973 146.112 122.022 146.003 122.071C145.589 122.219 145.295 122.243 144.86 122.218C144.638 121.565 144.537 120.966 144.485 120.277C144.473 120.12 144.46 119.962 144.448 119.8C144.439 119.681 144.43 119.561 144.421 119.438C143.38 119.411 142.339 119.398 141.298 119.396C140.944 119.394 140.59 119.388 140.236 119.378C138.388 119.239 138.388 119.239 136.684 119.773C136.216 120.273 135.987 120.833 135.79 121.486C135.742 121.631 135.693 121.776 135.644 121.925C130.719 121.925 125.795 121.925 120.721 121.925C120.432 121.394 120.142 120.863 119.844 120.316C119.573 119.822 119.301 119.328 119.03 118.835C118.963 118.713 118.896 118.592 118.828 118.467C118.695 118.227 118.562 117.986 118.429 117.746C118.297 117.504 118.169 117.259 118.046 117.012C117.986 116.893 117.925 116.774 117.863 116.651C117.81 116.544 117.758 116.436 117.704 116.326C117.433 115.986 117.221 115.968 116.799 115.918C116.595 115.915 116.39 115.916 116.186 115.927C116.167 116.075 116.147 116.222 116.128 116.374C116.044 116.922 115.934 117.452 115.807 117.991C115.784 118.085 115.762 118.18 115.739 118.277C115.669 118.576 115.599 118.874 115.528 119.173C115.48 119.375 115.433 119.577 115.385 119.778C115.263 120.299 115.14 120.82 115.016 121.34C114.996 121.454 114.976 121.568 114.955 121.685C114.927 121.764 114.899 121.843 114.869 121.925C114.725 121.973 114.58 122.022 114.431 122.071C114.225 122.916 114.332 123.707 114.431 124.559C113.959 123.851 113.961 123.204 113.992 122.364C114.04 122.219 114.088 122.074 114.138 121.925C112.11 121.925 110.083 121.925 107.994 121.925C108.089 121.065 108.157 120.458 108.404 119.672C108.781 118.408 109.049 117.126 109.319 115.836C109.394 115.481 109.469 115.127 109.544 114.773C109.591 114.555 109.637 114.337 109.682 114.119C109.843 113.36 110.029 112.609 110.219 111.857C110.417 111.06 110.597 110.259 110.778 109.458C110.818 109.28 110.859 109.101 110.901 108.917C111.029 108.352 111.157 107.787 111.285 107.222C111.454 106.477 111.623 105.732 111.793 104.987C111.831 104.819 111.869 104.651 111.908 104.478C112.149 103.414 112.406 102.355 112.675 101.297C113.905 101.275 115.135 101.253 116.365 101.233C116.936 101.223 117.508 101.213 118.079 101.203C122.459 101.121 122.459 101.121 124.111 101.202ZM118.234 106.857C118.111 107.353 117.99 107.85 117.869 108.347C117.834 108.487 117.799 108.628 117.763 108.773C117.73 108.909 117.697 109.045 117.663 109.185C117.632 109.31 117.601 109.435 117.57 109.564C117.501 109.938 117.491 110.281 117.503 110.66C118.061 110.673 118.618 110.681 119.176 110.688C119.332 110.691 119.489 110.695 119.65 110.699C120.823 110.71 121.842 110.637 122.76 109.856C123.285 109.219 123.427 108.866 123.412 108.06C123.32 107.541 123.03 107.313 122.623 107.003C122.211 106.797 121.866 106.84 121.406 106.842C121.13 106.843 121.13 106.843 120.849 106.844C120.656 106.845 120.463 106.846 120.264 106.848C120.068 106.848 119.872 106.849 119.676 106.85C119.195 106.851 118.715 106.854 118.234 106.857ZM143.105 108.612C142.884 108.993 142.665 109.374 142.446 109.755C142.383 109.863 142.321 109.971 142.256 110.082C142.197 110.187 142.137 110.291 142.076 110.398C141.993 110.542 141.993 110.542 141.909 110.688C141.758 110.971 141.758 110.971 141.788 111.392C141.597 111.591 141.401 111.785 141.203 111.977C141.037 112.222 140.878 112.472 140.727 112.727C140.651 112.854 140.575 112.981 140.496 113.112C140.302 113.422 140.302 113.422 140.325 113.733C140.73 113.744 141.136 113.753 141.541 113.76C141.656 113.764 141.771 113.767 141.889 113.771C142 113.773 142.111 113.774 142.225 113.775C142.327 113.778 142.429 113.78 142.534 113.782C142.892 113.718 143.021 113.567 143.251 113.294C143.444 113.487 143.637 113.68 143.836 113.879C143.768 112.669 143.678 111.463 143.553 110.258C143.542 110.145 143.531 110.032 143.52 109.915C143.461 109.378 143.409 109.069 143.105 108.612Z" fill="#0B6BB0"/>
<path d="M60.0083 70.4289C63.2918 71.263 66.566 72.1266 69.834 73.0194C70.9883 73.3348 72.143 73.6489 73.2977 73.9632C73.5677 74.0366 73.8377 74.1101 74.1076 74.1836C76.962 74.9607 79.8181 75.7311 82.6746 76.5003C87.0917 77.6899 91.5082 78.8815 95.9232 80.0788C96.4514 80.2221 96.9797 80.3652 97.508 80.5082C98.1209 80.6741 98.7337 80.8402 99.3465 81.0067C99.5709 81.0676 99.7953 81.1283 100.02 81.189C100.325 81.2715 100.63 81.3544 100.935 81.4374C101.105 81.4836 101.276 81.5299 101.452 81.5776C101.849 81.6937 101.849 81.6937 102.142 81.84C101.997 82.4609 101.801 82.9022 101.279 83.2897C99.7529 84.0813 97.8733 83.9338 96.2095 83.9044C95.4938 83.8924 94.778 83.8892 94.0622 83.8864C93.854 83.8856 93.854 83.8856 93.6416 83.8847C90.2213 83.8784 86.4818 84.1545 83.8563 86.6198C83.3977 87.1506 83.054 87.7458 82.7157 88.3588C82.2504 88.8716 81.899 88.8013 81.2213 88.8622C80.4309 91.7116 79.653 94.5641 78.8858 97.4198C78.7722 97.8423 78.6585 98.2647 78.5446 98.687C77.9495 100.893 77.3566 103.1 76.8163 105.32C76.5788 106.291 76.3039 107.236 75.9546 108.173C76.0444 108.189 76.1342 108.204 76.2266 108.22C76.6646 108.359 76.8098 108.635 77.0151 109.032C77.3991 110.122 77.0423 111.321 76.741 112.389C76.7011 112.535 76.6613 112.682 76.6203 112.833C76.3316 113.891 76.0278 114.944 75.721 115.997C75.3086 117.426 74.9466 118.868 74.5834 120.31C74.559 120.406 74.5346 120.502 74.5094 120.601C74.4423 120.866 74.3757 121.13 74.3092 121.395C74.1991 121.779 74.1991 121.779 74.0528 121.925C73.7476 121.939 73.4419 121.942 73.1364 121.942C72.9929 121.942 72.9929 121.942 72.8466 121.942C72.5292 121.942 72.2118 121.941 71.8943 121.939C71.6748 121.939 71.4552 121.939 71.2357 121.939C70.6568 121.938 70.0779 121.937 69.499 121.935C68.9086 121.934 68.3183 121.933 67.728 121.932C66.569 121.931 65.4099 121.928 64.2509 121.925C64.2922 121.761 64.3334 121.597 64.3759 121.427C64.5321 120.806 64.688 120.184 64.8438 119.562C64.9107 119.295 64.9777 119.028 65.0447 118.761C65.4081 117.314 65.7654 115.867 66.1039 114.414C66.2775 113.671 66.4647 112.933 66.6648 112.196C66.8803 111.396 67.0812 110.595 67.2602 109.786C67.7658 107.516 67.7658 107.516 68.5484 106.857C68.9926 106.687 69.3386 106.677 69.8102 106.71C69.838 106.455 69.838 106.455 69.8664 106.194C69.9416 105.595 70.0728 105.024 70.2277 104.44C70.2549 104.337 70.282 104.233 70.31 104.127C70.3993 103.789 70.4896 103.45 70.5799 103.112C70.6433 102.872 70.7066 102.633 70.7698 102.393C70.9364 101.763 71.104 101.132 71.2717 100.502C71.4391 99.872 71.6057 99.2422 71.7723 98.6124C71.966 97.8804 72.1598 97.1484 72.354 96.4165C72.8275 94.6311 73.2964 92.8446 73.7602 91.0567C73.8143 90.8481 73.8685 90.6395 73.9227 90.431C74.0577 89.9111 74.1924 89.3913 74.3271 88.8714C74.3944 88.6116 74.3944 88.6116 74.4631 88.3465C74.5702 87.9332 74.6772 87.52 74.7842 87.1067C74.643 87.0586 74.5017 87.0105 74.3562 86.961C73.9065 86.6678 73.9065 86.6678 73.7722 86.1323C73.7555 85.9179 73.7425 85.7031 73.7327 85.4883C73.7138 85.2619 73.694 85.0356 73.6733 84.8094C73.6639 84.7005 73.6545 84.5916 73.6447 84.4793C73.4202 82.3067 71.9389 80.3642 70.2972 79.0042C68.7483 77.7972 67.0424 76.8624 65.2865 75.9958C61.0252 73.8823 61.0252 73.8823 60.0083 72.1845C59.8567 71.5977 59.7296 70.9864 60.0083 70.4289Z" fill="#0D2339"/>
<path d="M81.6602 101.297C83.9292 101.297 86.1983 101.297 88.5361 101.297C88.1848 103.054 87.8312 104.791 87.4023 106.527C87.2454 107.167 87.0885 107.807 86.9268 108.466C88.9545 108.466 90.9822 108.466 93.0713 108.466C93.1858 107.961 93.3002 107.455 93.4182 106.935C93.5289 106.448 93.6399 105.961 93.7508 105.474C93.8281 105.134 93.9051 104.795 93.982 104.455C94.0922 103.968 94.2032 103.481 94.3142 102.994C94.3487 102.841 94.3831 102.688 94.4186 102.531C94.4508 102.39 94.483 102.25 94.5162 102.105C94.5445 101.981 94.5727 101.856 94.6019 101.728C94.6806 101.444 94.6806 101.444 94.8268 101.297C95.0379 101.284 95.2497 101.28 95.4612 101.281C95.5959 101.281 95.7307 101.281 95.8695 101.281C96.0159 101.282 96.1624 101.282 96.3132 101.283C96.537 101.283 96.537 101.283 96.7653 101.284C97.2438 101.285 97.7223 101.286 98.2008 101.288C98.5244 101.289 98.8479 101.29 99.1714 101.29C99.9665 101.292 100.761 101.294 101.556 101.297C101.464 102.315 101.278 103.284 101.047 104.279C101.01 104.44 100.973 104.601 100.935 104.767C100.814 105.296 100.691 105.825 100.569 106.354C100.484 106.724 100.399 107.094 100.314 107.464C100.047 108.628 99.7777 109.79 99.5083 110.953C99.4862 111.049 99.464 111.144 99.4412 111.243C99.041 112.97 98.6405 114.697 98.2378 116.424C98.1628 116.746 98.0878 117.068 98.0128 117.389C97.9597 117.617 97.9597 117.617 97.9055 117.849C97.7423 118.551 97.5816 119.254 97.4277 119.958C97.4006 120.082 97.3735 120.206 97.3455 120.333C97.2958 120.562 97.2466 120.791 97.1979 121.02C97.0371 121.763 97.0371 121.763 96.875 121.925C96.6639 121.939 96.4522 121.942 96.2406 121.942C96.1059 121.942 95.9712 121.942 95.8324 121.942C95.6859 121.941 95.5395 121.94 95.3886 121.939C95.2394 121.939 95.0903 121.939 94.9366 121.939C94.4581 121.938 93.9796 121.936 93.501 121.934C93.1775 121.934 92.8539 121.933 92.5304 121.932C91.7354 121.931 90.9404 121.928 90.1454 121.925C90.2224 120.955 90.3644 120.028 90.5888 119.082C90.6175 118.958 90.6462 118.834 90.6757 118.706C90.7358 118.447 90.7963 118.189 90.8572 117.93C90.9507 117.533 91.0427 117.136 91.1346 116.739C91.1934 116.487 91.2522 116.234 91.3112 115.982C91.3388 115.863 91.3663 115.744 91.3948 115.622C91.5913 114.791 91.5913 114.791 91.7546 114.464C89.6787 114.464 87.6027 114.464 85.4639 114.464C85.4156 114.802 85.3673 115.14 85.3176 115.488C85.2547 115.754 85.1877 116.02 85.1164 116.284C84.8928 117.151 84.7293 118.023 84.5775 118.906C84.3718 119.92 84.1056 120.921 83.8546 121.925C81.5856 121.925 79.3165 121.925 76.9787 121.925C77.3169 119.896 77.3169 119.896 77.5365 118.935C77.5611 118.826 77.5857 118.716 77.611 118.604C77.8395 117.594 78.0828 116.588 78.3257 115.582C78.5525 114.635 78.7504 113.685 78.928 112.727C79.0268 112.27 79.0268 112.27 79.168 111.864C79.3244 111.376 79.4158 110.907 79.5012 110.403C79.7788 108.845 80.1605 107.311 80.5335 105.773C80.6557 105.269 80.7771 104.765 80.8984 104.261C80.9759 103.939 81.0534 103.618 81.131 103.297C81.1673 103.147 81.2035 102.996 81.2409 102.841C81.2746 102.702 81.3083 102.564 81.3431 102.42C81.3726 102.299 81.4022 102.177 81.4326 102.051C81.4982 101.797 81.5772 101.546 81.6602 101.297Z" fill="#0B6EB2"/>
<path d="M103.751 101.297C105.972 101.297 108.192 101.297 110.481 101.297C110.386 102.147 110.289 102.894 110.099 103.713C110.075 103.815 110.052 103.916 110.028 104.02C109.951 104.351 109.874 104.682 109.796 105.013C109.742 105.247 109.688 105.481 109.634 105.716C109.492 106.331 109.349 106.946 109.205 107.561C108.978 108.538 108.751 109.515 108.525 110.493C108.471 110.728 108.416 110.964 108.361 111.199C108.037 112.601 107.716 114.002 107.43 115.412C107.298 116.064 107.143 116.708 106.979 117.353C106.6 118.869 106.277 120.399 105.945 121.925C103.628 121.925 101.311 121.925 98.9231 121.925C99.6012 118.874 99.6012 118.874 99.834 117.848C99.8617 117.726 99.8894 117.604 99.9179 117.478C100.007 117.086 100.096 116.694 100.185 116.302C100.216 116.165 100.247 116.027 100.28 115.886C100.93 113.026 101.592 110.168 102.259 107.312C102.405 106.688 102.551 106.064 102.696 105.439C102.805 104.97 102.915 104.502 103.025 104.033C103.076 103.814 103.126 103.596 103.177 103.377C103.246 103.08 103.316 102.783 103.386 102.486C103.425 102.319 103.464 102.152 103.504 101.98C103.605 101.59 103.605 101.59 103.751 101.297Z" fill="#0B6DB2"/>
<path d="M60.4472 68.6733C61.2653 68.6467 61.973 68.7233 62.7645 68.9408C62.9237 68.9825 62.9237 68.9825 63.086 69.0251C63.4229 69.1138 63.7592 69.2043 64.0955 69.2951C64.5355 69.4122 64.9758 69.5286 65.4161 69.6448C65.5255 69.6738 65.6348 69.7028 65.7474 69.7327C66.7105 69.9867 67.6786 70.2154 68.6487 70.4406C69.453 70.6275 70.2538 70.8273 71.0537 71.0324C71.2017 71.0691 71.3498 71.1059 71.5023 71.1438C71.7125 71.1978 71.7125 71.1978 71.9269 71.253C72.0513 71.2845 72.1756 71.316 72.3038 71.3485C72.5898 71.453 72.5898 71.453 72.7361 71.7456C73.0522 71.8677 73.0522 71.8677 73.4459 71.9648C73.6006 72.0063 73.7553 72.0478 73.9147 72.0906C74.087 72.1355 74.2593 72.1804 74.4368 72.2267C74.7165 72.3013 74.9963 72.3758 75.2761 72.4504C75.5812 72.5315 75.8865 72.612 76.1919 72.6923C76.8413 72.8632 77.4903 73.0358 78.1392 73.2086C78.8421 73.3958 79.5449 73.5829 80.2479 73.7695C82.1132 74.2647 83.9771 74.765 85.8405 75.2675C85.9796 75.305 86.1187 75.3426 86.2621 75.3812C87.6699 75.761 89.0777 76.1412 90.4853 76.5216C91.1696 76.7065 91.8538 76.8914 92.5381 77.0762C92.6702 77.1119 92.8022 77.1476 92.9383 77.1844C94.4233 77.5855 95.9089 77.9844 97.3963 78.3767C98.0728 78.5551 98.7489 78.7347 99.425 78.9143C99.8608 79.0294 100.297 79.1426 100.733 79.2557C100.985 79.3225 101.236 79.3894 101.488 79.4564C101.599 79.4846 101.711 79.5128 101.826 79.5418C102.126 79.6232 102.126 79.6232 102.581 79.7919C102.764 80.3428 102.635 80.5777 102.434 81.1085C100.623 80.697 98.8304 80.2305 97.0396 79.737C96.7611 79.6606 96.4826 79.5843 96.2041 79.5079C95.4605 79.3041 94.7171 79.0997 93.9738 78.8952C93.1881 78.6792 92.4024 78.4638 91.6166 78.2482C90.3488 77.9004 89.081 77.5524 87.8133 77.2041C86.3032 76.7893 84.793 76.3753 83.2826 75.9619C83.0694 75.9035 82.8563 75.8452 82.6431 75.7868C82.3291 75.7009 82.0151 75.6149 81.7011 75.529C74.6153 73.5894 67.5314 71.6427 60.4472 69.6974C60.3105 69.257 60.2944 69.1318 60.4472 68.6733Z" fill="#20364B"/>
<path d="M27.2907 98.053C27.4191 98.0511 27.5476 98.0492 27.68 98.0473C27.8185 98.0462 27.957 98.0451 28.0997 98.044C28.2428 98.0429 28.3859 98.0417 28.5333 98.0405C28.8363 98.0384 29.1393 98.0369 29.4423 98.0357C29.9041 98.0332 30.3657 98.0268 30.8274 98.0203C31.122 98.0188 31.4167 98.0176 31.7114 98.0166C31.8488 98.014 31.9861 98.0115 32.1276 98.0088C33.0146 98.0118 33.5354 98.1434 34.2602 98.6641C34.8201 99.4046 34.8174 100.259 34.6991 101.151C34.3574 101.874 33.9356 102.239 33.2361 102.614C32.7352 102.696 32.2426 102.693 31.736 102.687C31.5213 102.687 31.5213 102.687 31.3022 102.687C31.0006 102.687 30.699 102.685 30.3974 102.682C29.9363 102.678 29.4755 102.679 29.0144 102.681C28.7207 102.68 28.4271 102.679 28.1334 102.678C27.9272 102.678 27.9272 102.678 27.7169 102.679C27 102.668 26.5 102.646 25.9213 102.175C25.3198 101.49 25.1388 101.09 25.1475 100.193C25.2388 99.4184 25.6243 98.7331 26.2139 98.2252C26.6191 98.0901 26.8716 98.0583 27.2907 98.053Z" fill="#12273D"/>
<path d="M33.3053 117.011C33.4516 117.011 33.598 117.011 33.7489 117.011C34.0574 117.011 34.3659 117.014 34.6744 117.018C35.1461 117.024 35.6174 117.024 36.0892 117.023C36.3895 117.025 36.6898 117.027 36.9901 117.029C37.1308 117.029 37.2714 117.029 37.4164 117.029C38.356 117.046 38.8668 117.189 39.5634 117.847C39.9754 118.524 40.0417 119.164 39.9012 119.942C39.6938 120.661 39.4633 121.095 38.7954 121.486C38.3848 121.613 38.011 121.653 37.5825 121.659C37.3986 121.661 37.3986 121.661 37.211 121.664C37.0797 121.665 36.9483 121.666 36.8129 121.667C36.6766 121.669 36.5402 121.67 36.3997 121.671C36.1113 121.673 35.823 121.675 35.5346 121.676C35.2405 121.677 34.9463 121.68 34.6522 121.685C34.2265 121.691 33.8008 121.693 33.375 121.695C33.2445 121.697 33.114 121.7 32.9796 121.703C32.1116 121.7 31.6061 121.554 30.8954 121.047C30.3638 120.327 30.3552 119.569 30.4565 118.707C30.9565 117.234 31.8978 116.987 33.3053 117.011Z" fill="#11273D"/>
<path d="M109.795 93.4614C110.659 93.9787 111.341 94.7582 111.724 95.6833C111.895 96.8339 111.794 97.8068 111.18 98.8087C110.53 99.652 109.757 100.048 108.708 100.188C107.472 100.243 106.52 99.9965 105.562 99.1978C104.938 98.5352 104.653 97.6992 104.609 96.8051C104.655 95.8377 104.883 95.029 105.506 94.2752C106.708 93.2738 108.284 92.7995 109.795 93.4614Z" fill="#15A3DE"/>
<path d="M24.7875 107.323C25.5368 107.817 26.0445 108.35 26.3602 109.197C26.4591 110.236 26.2691 110.967 25.5921 111.794C24.9829 112.293 24.4374 112.533 23.6537 112.617C22.7959 112.525 22.2084 112.271 21.633 111.63C21.1007 110.95 20.8737 110.392 20.9021 109.507C21.0012 108.827 21.2763 108.262 21.7838 107.796C22.7159 107.109 23.6834 106.92 24.7875 107.323Z" fill="#1068AD"/>
<path d="M33.6933 78.4352C34.3881 78.8036 34.8068 79.3036 35.1745 79.9839C35.3947 80.7728 35.3818 81.4196 35.0465 82.16C34.6644 82.8354 34.2278 83.3088 33.4755 83.5687C32.6857 83.7593 32.0922 83.7925 31.3342 83.4493C30.5716 82.9498 30.1369 82.4379 29.8713 81.5474C29.7674 80.5777 30.0457 79.9006 30.5753 79.097C31.4057 78.2429 32.5681 78.0505 33.6933 78.4352Z" fill="#1EB1E8"/>
<path d="M40.2217 88.3593C40.8108 88.7438 41.1824 89.2285 41.4287 89.8863C41.5634 90.7905 41.5343 91.6111 40.9898 92.3733C40.345 93.02 39.7387 93.4388 38.8136 93.4431C37.9421 93.4227 37.4373 93.1812 36.7838 92.6019C36.107 91.8312 36.0988 91.2063 36.1157 90.1989C36.1946 89.4167 36.5446 89.0541 37.0947 88.5331C38.0921 87.8681 39.147 87.8325 40.2217 88.3593Z" fill="#13283E"/>
</svg>
