<svg width="178" height="203" viewBox="0 0 178 203" fill="none" xmlns="http://www.w3.org/2000/svg">
<path d="M171.535 54.6314C171.535 53.9168 171.154 53.2562 170.535 52.8989L89.7676 6.26809C89.1488 5.91082 88.3864 5.91082 87.7676 6.26809L7 52.8989C6.3812 53.2562 6 53.9168 6 54.6314V147.893C6 148.608 6.3812 149.268 7 149.626L87.7676 196.256C88.3864 196.614 89.1488 196.614 89.7676 196.256L170.535 149.626C171.154 149.268 171.535 148.608 171.535 147.893V54.6314ZM177.535 147.893C177.535 150.751 176.01 153.393 173.535 154.822L92.7676 201.453C90.2924 202.882 87.2428 202.882 84.7676 201.453L4 154.822C1.60213 153.437 0.0966518 150.915 0.00488281 148.161L0 147.893V54.6314C0 51.8626 1.43084 49.2972 3.77051 47.8404L4 47.7027L84.7676 1.0718C87.2428 -0.357266 90.2924 -0.357265 92.7676 1.0718L173.535 47.7027C176.01 49.1317 177.535 51.7732 177.535 54.6314V147.893Z" fill="#02FCCF"/>
<path d="M104.126 57.8789C104.496 58.1795 104.496 58.1795 104.819 58.5716C104.982 58.7645 104.982 58.7645 105.149 58.9613C105.393 59.3039 105.393 59.3039 105.393 59.6206C105.654 59.6206 105.915 59.6206 106.184 59.6206C106.184 59.7773 106.184 59.9341 106.184 60.0956C106.341 60.0956 106.498 60.0956 106.659 60.0956C106.659 60.2001 106.659 60.3046 106.659 60.4122C106.764 60.4122 106.868 60.4122 106.976 60.4122C106.976 60.6735 106.976 60.9347 106.976 61.2039C106.192 61.2561 105.408 61.3084 104.601 61.3622C104.601 61.4667 104.601 61.5712 104.601 61.6789C103.66 61.7573 103.66 61.7573 102.701 61.8372C102.981 61.8356 103.261 61.8339 103.55 61.8322C104.485 61.8271 105.42 61.8234 106.356 61.8208C106.922 61.8192 107.488 61.817 108.054 61.8133C108.602 61.8098 109.15 61.808 109.698 61.8072C110.005 61.8063 110.311 61.8039 110.618 61.8014C112.018 61.8012 113.353 61.9385 114.734 62.1539C114.734 62.2584 114.734 62.3629 114.734 62.4706C115.048 62.5228 115.361 62.5751 115.684 62.6289C115.684 62.7334 115.684 62.8379 115.684 62.9456C115.815 62.9358 115.945 62.926 116.08 62.9159C116.774 62.953 117.26 63.1555 117.901 63.4206C117.901 63.5251 117.901 63.6296 117.901 63.7372C118.034 63.7519 118.167 63.7666 118.305 63.7818C118.926 63.9113 119.436 64.1491 119.989 64.4497C120.143 64.5329 120.143 64.5329 120.3 64.6178C121.269 65.1576 122.201 65.7789 122.968 66.5872C122.968 66.744 122.968 66.9007 122.968 67.0622C121.825 67.3727 120.679 67.6152 119.512 67.8121C118.668 67.9562 117.83 68.122 116.992 68.2956C115.247 68.6562 113.501 68.9593 111.736 69.2067C110.888 69.3256 110.045 69.4508 109.204 69.6116C106.205 70.173 103.209 70.201 100.168 70.2289C100.115 70.3334 100.063 70.4379 100.009 70.5456C100.741 70.5456 101.472 70.5456 102.226 70.5456C102.226 70.6501 102.226 70.7546 102.226 70.8622C103.143 70.8472 104.061 70.8303 104.978 70.812C105.289 70.806 105.6 70.8005 105.91 70.7954C110.113 70.8865 110.113 70.8865 114.101 69.9122C114.476 69.8758 114.853 69.8471 115.229 69.8232C115.533 69.8033 115.533 69.8033 115.844 69.783C116 69.7734 116.156 69.7638 116.318 69.7539C115.838 70.1362 115.505 70.3022 114.893 70.3872C114.893 70.4917 114.893 70.5962 114.893 70.7039C114.657 70.7823 114.657 70.7823 114.418 70.8622C114.365 70.9667 114.313 71.0712 114.259 71.1789C113.998 71.1789 113.737 71.1789 113.468 71.1789C113.52 71.3356 113.572 71.4924 113.626 71.6539C113.574 71.9708 113.521 72.2874 113.468 72.6039C113.385 73.5834 113.579 74.2241 113.939 75.1323C114.217 75.9566 114.314 76.8095 114.418 77.6706C114.522 77.6706 114.627 77.6706 114.734 77.6706C115.112 78.5031 115.392 79.333 115.635 80.2138C115.67 80.3368 115.706 80.4597 115.743 80.5864C115.933 81.2687 116.043 81.8634 116.001 82.5789C116.105 82.5789 116.21 82.5789 116.318 82.5789C116.356 82.7552 116.394 82.9316 116.434 83.1133C116.487 83.3574 116.541 83.6015 116.595 83.8456C116.637 84.0404 116.637 84.0404 116.681 84.2391C116.816 84.849 116.954 85.4565 117.117 86.0598C118.035 89.4745 118.225 92.9548 118.245 96.4744C118.247 96.7082 118.248 96.9419 118.251 97.1757C118.261 98.4171 118.242 99.5864 117.901 100.787C117.858 100.985 117.815 101.182 117.77 101.386C117.394 103.006 116.829 104.491 116.159 106.012C116.055 106.012 115.95 106.012 115.843 106.012C115.801 106.152 115.758 106.291 115.715 106.435C115.243 107.75 114.322 108.857 113.443 109.925C113.189 110.24 112.955 110.558 112.725 110.891C110.94 113.352 108.115 115.303 105.617 116.984C105.173 117.283 104.748 117.58 104.333 117.92C103.977 118.197 103.698 118.335 103.275 118.481C102.549 118.755 101.878 119.092 101.197 119.461C101.042 119.544 101.042 119.544 100.884 119.629C100.454 119.861 100.026 120.095 99.5998 120.334C98.3618 121.002 96.6789 121.687 95.2592 121.687C95.2592 121.792 95.2592 121.896 95.2592 122.004C94.8407 122.105 94.4218 122.203 94.0025 122.301C93.8891 122.328 93.7757 122.356 93.6589 122.384C91.3876 122.906 89.0808 123.023 86.7587 123.023C86.6265 123.023 86.4942 123.024 86.358 123.024C83.4103 123.023 80.2727 122.84 77.5259 121.687C77.3422 121.612 77.1585 121.536 76.9693 121.458C76.0255 121.038 75.1071 120.569 74.1871 120.1C73.9308 119.969 73.6735 119.841 73.416 119.713C72.196 119.084 71.1205 118.277 70.0291 117.451C69.7006 117.203 69.3676 116.962 69.0353 116.72C68.5507 116.355 68.1267 115.953 67.7092 115.512C67.6145 115.424 67.5198 115.336 67.4223 115.245C67.2342 115.037 67.2342 115.037 67.2342 114.721C67.1446 114.684 67.055 114.647 66.9627 114.61C66.5075 114.351 66.2255 114.034 65.8785 113.642C65.7575 113.507 65.6365 113.372 65.5118 113.233C65.1974 112.847 64.9538 112.456 64.7009 112.029C64.5866 111.928 64.4723 111.826 64.3546 111.722C64.0676 111.396 64.0676 111.396 64.015 110.973C64.0794 110.327 64.318 109.84 64.6217 109.278C64.6746 109.176 64.7275 109.075 64.7819 108.97C64.9115 108.722 65.0435 108.475 65.1759 108.229C65.2804 108.229 65.3849 108.229 65.4926 108.229C65.4926 108.124 65.4926 108.02 65.4926 107.912C66.0329 108.135 66.2701 108.379 66.591 108.862C66.9615 109.383 67.2231 109.661 67.8676 109.812C67.8676 109.917 67.8676 110.021 67.8676 110.129C69.0786 110.124 69.8474 109.879 70.7176 109.021C72.3089 107.206 72.1282 104.301 72.1426 102.054C72.0381 102.054 71.9336 102.054 71.8259 102.054C71.5342 101.116 71.3571 100.172 71.1926 99.2039C71.0881 99.2039 70.9836 99.2039 70.8759 99.2039C70.8237 98.9426 70.7714 98.6814 70.7176 98.4122C70.2473 98.36 69.7771 98.3077 69.2926 98.2539C69.3856 98.4645 69.3856 98.4645 69.4806 98.6794C70.613 101.338 71.1863 103.6 70.7176 106.487C70.6131 106.487 70.5086 106.487 70.4009 106.487C70.3878 106.68 70.3748 106.873 70.3613 107.071C70.2805 107.724 70.0814 108.073 69.6092 108.546C69.1342 108.862 69.1342 108.862 68.6988 108.872C67.6475 108.528 66.9923 107.568 66.4426 106.646C66.3299 106.391 66.3299 106.391 66.215 106.131C66.0025 105.664 66.0025 105.664 65.5421 105.478C65.3608 105.429 65.3608 105.429 65.1759 105.379C65.1759 105.483 65.1759 105.588 65.1759 105.696C65.0714 105.696 64.9669 105.696 64.8592 105.696C64.8331 105.885 64.807 106.074 64.7801 106.27C64.6179 107.003 64.306 107.628 63.9389 108.278C63.8865 108.373 63.834 108.468 63.78 108.565C63.4284 109.167 63.0737 109.596 62.4842 109.971C62.2752 109.971 62.0662 109.971 61.8509 109.971C61.3167 109.144 61.1052 108.501 61.0197 107.526C61.0013 107.353 61.0013 107.353 60.9826 107.175C60.9531 106.893 60.9267 106.611 60.9009 106.329C60.2549 106.259 60.2549 106.259 59.7017 106.532C59.6435 106.625 59.5853 106.718 59.5254 106.814C59.4601 106.916 59.3948 107.018 59.3275 107.124C59.1364 107.462 59.1364 107.462 58.9712 107.952C58.5516 109.013 57.5795 109.98 56.634 110.587C56.0594 110.796 55.7788 110.799 55.2009 110.604C54.4709 109.926 54.043 109.12 53.9441 108.13C53.936 107.899 53.9308 107.668 53.9342 107.437C53.8297 107.437 53.7252 107.437 53.6176 107.437C53.4164 106.006 53.2456 104.612 53.3009 103.162C52.9352 103.162 52.5694 103.162 52.1926 103.162C52.1483 103.276 52.104 103.39 52.0584 103.507C51.1941 105.625 49.7468 109.056 47.6009 110.129C47.2843 110.135 46.9675 110.136 46.6509 110.129C46.1884 107.188 46.7117 104.39 47.6009 101.579C47.7054 101.579 47.8099 101.579 47.9176 101.579C47.9339 101.396 47.9502 101.213 47.9671 101.025C48.1021 99.9591 48.5338 99.0669 49.0228 98.1224C49.179 97.7901 49.2895 97.4681 49.3958 97.1171C49.6519 96.3333 50.002 95.6244 50.3915 94.8992C50.4608 94.7691 50.53 94.6391 50.6014 94.505C52.4297 91.1164 52.4297 91.1164 53.6176 89.8622C53.7221 89.8622 53.8266 89.8622 53.9342 89.8622C54.0387 89.6532 54.1432 89.4442 54.2509 89.2289C54.3554 89.2289 54.4599 89.2289 54.5676 89.2289C54.6267 89.0908 54.6267 89.0908 54.6869 88.95C55.3779 87.7089 56.8704 86.9292 58.0509 86.2206C58.2398 86.105 58.4287 85.9893 58.6174 85.8736C60.4117 84.7786 62.1754 83.7428 64.1801 83.0762C64.7069 82.9026 64.7069 82.9026 65.2186 82.6599C66.0627 82.2905 66.9705 82.1365 67.8673 81.9428C68.863 81.7184 69.7811 81.4013 70.7176 80.9956C70.6131 80.6821 70.5086 80.3686 70.4009 80.0456C69.4729 80.1204 68.6643 80.2842 67.7791 80.5682C67.2295 80.7256 66.6944 80.7846 66.1259 80.8372C66.1259 80.9417 66.1259 81.0462 66.1259 81.1539C65.9765 81.2019 65.8271 81.2498 65.6732 81.2992C64.3715 81.7222 63.1089 82.1957 61.8509 82.7372C61.5873 82.8436 61.3236 82.9494 61.0592 83.0539C61.1635 81.4549 61.4263 79.8822 61.6926 78.3039C61.7201 78.1381 61.7201 78.1381 61.7482 77.9689C62.1468 75.5992 62.714 73.2601 63.5926 71.0206C63.671 70.7854 63.671 70.7854 63.7509 70.5456C63.8554 70.5456 63.9599 70.5456 64.0676 70.5456C64.0839 70.366 64.1002 70.1863 64.1171 70.0013C64.1961 69.3633 64.3656 68.7909 64.5828 68.1873C64.7161 67.8257 64.7161 67.8257 64.8395 67.3294C65.0806 66.7533 65.2594 66.5785 65.8092 66.2706C66.3017 66.1608 66.7903 66.0824 67.2905 66.0164C67.7045 65.9767 67.7045 65.9767 68.0259 65.7956C68.3025 65.7671 68.5797 65.7449 68.8572 65.7263C69.5301 65.6705 70.08 65.5464 70.7176 65.3206C71.5141 65.1489 72.2764 65.0039 73.0926 65.0039C73.0926 64.8994 73.0926 64.7949 73.0926 64.6872C73.189 64.6714 73.2854 64.6555 73.3847 64.6391C74.1568 64.5103 74.9279 64.3765 75.6977 64.2345C75.8445 64.2076 75.9913 64.1807 76.1425 64.153C76.7323 64.0181 77.2805 63.8099 77.8389 63.5795C78.6759 63.3016 79.5452 63.1707 80.4117 63.0143C81.3302 62.8484 82.2316 62.6526 83.135 62.4168C84.1126 62.166 85.0608 61.9421 86.0759 61.9956C86.0759 61.8911 86.0759 61.7866 86.0759 61.6789C86.1948 61.6518 86.3137 61.6247 86.4362 61.5967C86.9792 61.4727 87.5221 61.3482 88.065 61.2237C88.252 61.181 88.4391 61.1384 88.6318 61.0944C89.7365 60.8434 89.7365 60.8434 90.8302 60.5495C91.2506 60.4269 91.6623 60.3332 92.0926 60.2539C92.5491 60.166 92.9812 60.0674 93.4285 59.9372C94.0321 59.7678 94.6311 59.6589 95.2481 59.5513C95.7658 59.4564 96.2789 59.3471 96.7931 59.2346C97.6356 59.052 98.4795 58.8807 99.3264 58.72C99.4346 58.6992 99.5429 58.6784 99.6543 58.657C100.098 58.5739 100.507 58.5122 100.959 58.5122C100.959 58.4077 100.959 58.3032 100.959 58.1956C101.309 58.1419 101.658 58.0894 102.008 58.0372C102.203 58.0078 102.398 57.9784 102.598 57.9482C103.65 57.822 103.65 57.822 104.126 57.8789Z" fill="#E9530C"/>
<path d="M98.4036 48.6863C98.5547 48.8232 98.7057 48.9602 98.8613 49.1013C99.0275 49.248 99.1941 49.3941 99.3611 49.5398C99.4433 49.612 99.5256 49.6842 99.6103 49.7585C100.071 50.1485 100.571 50.4801 101.069 50.8201C101.841 51.3491 102.58 51.9089 103.285 52.5253C103.7 52.8877 104.12 53.1728 104.601 53.4456C104.967 53.693 104.967 53.693 105.234 53.9206C105.234 54.0251 105.234 54.1296 105.234 54.2372C105.355 54.2797 105.476 54.3221 105.6 54.3659C106.014 54.5485 106.196 54.7101 106.501 55.0289C106.658 55.0811 106.814 55.1334 106.976 55.1872C106.818 55.6622 106.818 55.6622 106.498 55.8354C105.888 56.0208 105.28 56.1204 104.65 56.2164C104.393 56.2577 104.135 56.2991 103.878 56.3407C103.755 56.3603 103.633 56.38 103.507 56.4002C102.547 56.5561 101.61 56.7647 100.669 57.0104C99.5509 57.3012 98.4778 57.5131 97.3176 57.5622C97.3176 57.6667 97.3176 57.7712 97.3176 57.8789C97.1549 57.9077 96.9922 57.9365 96.8246 57.9661C94.696 58.3309 94.696 58.3309 92.6474 58.9928C92.2515 59.1453 91.8975 59.2202 91.479 59.2841C90.7544 59.4067 90.059 59.5801 89.3514 59.7789C87.9719 60.1565 86.5623 60.4443 85.1259 60.4122C85.1259 60.5167 85.1259 60.6212 85.1259 60.7289C85.0055 60.7552 84.8851 60.7815 84.7611 60.8086C84.2064 60.93 83.6518 61.0521 83.0973 61.1742C82.908 61.2155 82.7187 61.2569 82.5236 61.2995C81.4996 61.5255 80.4879 61.7735 79.4781 62.056C79.0382 62.1728 78.6001 62.25 78.1493 62.3122C77.4199 62.4257 76.7423 62.5983 76.0397 62.8212C74.6831 63.2288 73.2777 63.4836 71.8933 63.7787C70.7152 64.0326 69.5429 64.3089 68.3723 64.5951C66.6955 65.0038 65.0259 65.4037 63.3242 65.6941C62.7883 65.7891 62.7883 65.7891 62.2282 65.9663C61.7517 66.0961 61.3896 66.1418 60.9009 66.1122C61.21 64.9598 61.6302 63.8628 62.0804 62.76C62.3781 62.0304 62.655 61.2931 62.9314 60.5551C63.1176 60.0956 63.1176 60.0956 63.3545 59.6249C63.5969 59.137 63.7838 58.6484 63.9686 58.1362C64.7792 56.0189 64.7792 56.0189 65.6311 55.593C66.164 55.497 66.6983 55.4221 67.2342 55.3456C67.4547 55.2672 67.4547 55.2672 67.6796 55.1872C68.3673 54.9715 69.0513 54.9244 69.7676 54.8706C69.7676 54.7661 69.7676 54.6616 69.7676 54.5539C70.249 54.4738 70.7306 54.3948 71.2124 54.3164C71.3479 54.2937 71.4834 54.2711 71.623 54.2477C72.3321 54.1332 73.0048 54.0505 73.7259 54.0789C73.7259 53.9744 73.7259 53.8699 73.7259 53.7622C74.8564 53.3536 75.9795 53.1028 77.1598 52.8815C78.629 52.6064 78.629 52.6064 80.0592 52.1789C80.3813 52.1012 80.7047 52.0289 81.029 51.9612C81.2205 51.921 81.4119 51.8808 81.6092 51.8393C82.1026 51.7382 82.5967 51.6405 83.0911 51.5437C83.2313 51.5161 83.3715 51.4886 83.5159 51.4601C83.7923 51.406 84.0688 51.3524 84.3455 51.2995C84.8969 51.1917 85.4199 51.0782 85.9534 50.8992C86.4191 50.7451 86.8345 50.6907 87.3228 50.6549C87.4759 50.6431 87.6289 50.6313 87.7867 50.6191C87.9014 50.6113 88.0161 50.6036 88.1342 50.5956C88.1342 50.4911 88.1342 50.3866 88.1342 50.2789C88.6388 50.1761 89.1436 50.0741 89.6483 49.9721C89.7901 49.9432 89.9318 49.9144 90.0778 49.8846C90.6813 49.763 91.2789 49.6486 91.8891 49.5658C92.4529 49.4806 92.9704 49.3311 93.5176 49.1706C94.0998 49.0248 94.6843 48.8895 95.2691 48.7549C95.4989 48.7004 95.4989 48.7004 95.7333 48.6448C97.6824 48.1966 97.6824 48.1966 98.4036 48.6863Z" fill="#E9530C"/>
<path d="M105.551 59.6206C105.76 59.6206 105.969 59.6206 106.184 59.6206C106.184 59.7773 106.184 59.9341 106.184 60.0956C106.341 60.0956 106.498 60.0956 106.659 60.0956C106.659 60.2001 106.659 60.3046 106.659 60.4122C106.764 60.4122 106.868 60.4122 106.976 60.4122C106.976 60.6735 106.976 60.9347 106.976 61.2039C106.192 61.2562 105.408 61.3084 104.601 61.3622C104.601 61.4667 104.601 61.5712 104.601 61.6789C103.66 61.7573 103.66 61.7573 102.701 61.8372C103.121 61.8347 103.121 61.8347 103.55 61.8322C104.485 61.8271 105.42 61.8234 106.356 61.8208C106.922 61.8192 107.488 61.817 108.054 61.8133C108.602 61.8099 109.15 61.808 109.698 61.8072C110.005 61.8063 110.311 61.8039 110.618 61.8014C112.018 61.8012 113.353 61.9385 114.734 62.1539C114.734 62.2584 114.734 62.3629 114.734 62.4706C115.048 62.5228 115.361 62.5751 115.684 62.6289C115.684 62.7334 115.684 62.8379 115.684 62.9456C115.88 62.9309 115.88 62.9309 116.08 62.9159C116.774 62.953 117.26 63.1555 117.901 63.4206C117.901 63.5251 117.901 63.6296 117.901 63.7372C118.034 63.7519 118.167 63.7666 118.305 63.7818C118.926 63.9113 119.436 64.1491 119.989 64.4497C120.092 64.5052 120.194 64.5606 120.3 64.6178C121.269 65.1576 122.201 65.7789 122.968 66.5872C122.968 66.744 122.968 66.9007 122.968 67.0622C121.825 67.3727 120.679 67.6152 119.512 67.8121C118.668 67.9562 117.83 68.122 116.992 68.2956C115.247 68.6562 113.501 68.9593 111.736 69.2067C110.888 69.3256 110.045 69.4508 109.204 69.6116C106.205 70.173 103.209 70.201 100.168 70.2289C100.115 70.3334 100.063 70.4379 100.009 70.5456C100.741 70.5456 101.472 70.5456 102.226 70.5456C102.226 70.6501 102.226 70.7546 102.226 70.8622C103.143 70.8472 104.061 70.8303 104.978 70.812C105.289 70.806 105.6 70.8005 105.91 70.7954C110.113 70.8865 110.113 70.8865 114.101 69.9122C114.476 69.8758 114.853 69.8471 115.229 69.8232C115.432 69.8099 115.635 69.7966 115.844 69.783C116 69.7734 116.157 69.7638 116.318 69.7539C115.838 70.1362 115.505 70.3022 114.893 70.3872C114.893 70.4917 114.893 70.5962 114.893 70.7039C114.657 70.7823 114.657 70.7823 114.418 70.8622C114.365 70.9667 114.313 71.0712 114.259 71.1789C113.998 71.1789 113.737 71.1789 113.468 71.1789C113.52 71.3357 113.572 71.4924 113.626 71.6539C113.572 72.0813 113.572 72.0813 113.477 72.5544C113.447 72.7118 113.416 72.8691 113.384 73.0313C113.359 73.1515 113.335 73.2717 113.309 73.3956C113.205 73.3956 113.1 73.3956 112.993 73.3956C112.94 73.2388 112.888 73.0821 112.834 72.9206C112.625 72.9206 112.416 72.9206 112.201 72.9206C112.175 73.6131 112.194 74.2118 112.358 74.8855C112.573 75.921 112.564 76.9432 112.557 77.9971C112.559 78.2857 112.559 78.2857 112.561 78.5801C112.555 81.1025 112.555 81.1025 111.874 82.1138C111.234 82.5361 110.731 82.5463 109.984 82.4206C109.42 82.1831 109.42 82.1831 109.034 81.9456C109.034 81.8411 109.034 81.7366 109.034 81.6289C108.878 81.6289 108.721 81.6289 108.559 81.6289C108.53 81.7299 108.502 81.831 108.472 81.9351C108.432 82.0659 108.392 82.1967 108.351 82.3315C108.313 82.4619 108.274 82.5923 108.235 82.7267C108.185 82.8347 108.135 82.9427 108.084 83.0539C107.928 83.1061 107.771 83.1584 107.609 83.2122C107.609 83.3167 107.609 83.4212 107.609 83.5289C106.62 83.5971 106.2 83.5331 105.393 82.8956C105.118 82.5576 104.877 82.2375 104.641 81.8763C104.579 81.7876 104.518 81.6989 104.456 81.6076C104.117 81.1056 103.852 80.6168 103.651 80.0456C103.546 80.0456 103.442 80.0456 103.334 80.0456C103.272 79.8986 103.21 79.7517 103.146 79.6003C102.926 79.0855 102.696 78.5757 102.463 78.0664C102.362 77.8432 102.362 77.8432 102.259 77.6155C102.144 77.3631 102.028 77.1111 101.911 76.8597C101.674 76.338 101.593 76.0422 101.593 75.4539C101.488 75.4539 101.384 75.4539 101.276 75.4539C101.224 75.2971 101.171 75.1404 101.118 74.9789C100.795 74.8389 100.795 74.8389 100.405 74.7315C98.8832 74.1597 97.8209 72.6225 97.1593 71.1789C96.7168 70.0242 96.6028 68.9559 96.615 67.7253C96.616 67.5585 96.6169 67.3918 96.6179 67.22C96.6501 65.6154 96.8708 64.0525 97.9509 62.7872C98.0513 62.6635 98.0513 62.6635 98.1538 62.5374C99.1132 61.529 100.575 61.413 101.905 61.3344C102.223 61.3329 102.541 61.3455 102.859 61.3622C102.859 61.2577 102.859 61.1532 102.859 61.0456C104.024 60.9335 105.172 60.8639 106.343 60.8872C106.166 60.3578 105.945 60.1602 105.551 59.7789C105.551 59.7267 105.551 59.6744 105.551 59.6206Z" fill="#1B0405"/>
<path d="M90.8259 38.5622C91.0516 38.7916 91.0516 38.7916 91.2601 39.0898C91.3396 39.2016 91.419 39.3135 91.5009 39.4287C91.5851 39.551 91.6694 39.6732 91.7561 39.7992C91.8895 39.9884 91.8895 39.9884 92.0256 40.1814C92.3134 40.5906 92.5988 41.0014 92.8842 41.4122C93.0803 41.6917 93.2766 41.971 93.473 42.2503C93.9288 42.8989 94.3829 43.5486 94.836 44.1991C95.2139 44.7409 95.5933 45.2817 95.9728 45.8224C96.5259 46.6173 96.5259 46.6173 96.5259 47.2706C96.387 47.2977 96.2481 47.3248 96.105 47.3527C95.5861 47.4543 95.0674 47.5565 94.5487 47.659C94.3248 47.7032 94.1009 47.7471 93.877 47.7908C93.5538 47.8539 93.2308 47.9178 92.9077 47.9818C92.7137 48.02 92.5197 48.0581 92.3198 48.0974C91.8067 48.2136 91.3238 48.3689 90.8259 48.5372C90.4565 48.59 90.087 48.6428 89.7176 48.6956C89.5706 48.7445 89.4237 48.7935 89.2723 48.844C88.711 49.0311 88.1562 49.1369 87.5745 49.2398C87.1804 49.3183 87.1804 49.3183 86.8119 49.4835C86.2917 49.6846 85.7845 49.7693 85.2348 49.8633C83.8085 50.1163 82.4175 50.4703 81.0159 50.8344C80.2692 51.0252 79.5203 51.1858 78.7629 51.3278C78.6002 51.3597 78.6002 51.3597 78.4342 51.3922C77.8601 51.5005 77.3186 51.5705 76.7342 51.5456C76.7342 51.6501 76.7342 51.7546 76.7342 51.8622C72.696 52.8375 72.696 52.8375 71.5092 52.8122C71.5092 52.9167 71.5092 53.0212 71.5092 53.1289C71.4193 53.1456 71.3294 53.1623 71.2367 53.1795C68.8688 53.62 68.8688 53.62 66.5211 54.1556C66.1259 54.2372 66.1259 54.2372 65.4926 54.2372C65.4564 52.9159 65.5667 51.6387 65.7301 50.3284C65.7527 50.1399 65.7754 49.9514 65.7987 49.7572C65.8541 49.2976 65.9104 48.8382 65.9676 48.3789C66.0721 48.3789 66.1766 48.3789 66.2842 48.3789C66.2806 48.294 66.2769 48.2091 66.2731 48.1216C66.2524 47.2239 66.3166 46.3498 66.4228 45.4596C66.4352 45.3491 66.4476 45.2386 66.4604 45.1247C66.5308 44.5696 66.6015 44.2613 66.9176 43.7872C67.2462 43.6606 67.2462 43.6606 67.648 43.5677C67.8661 43.5164 67.8661 43.5164 68.0887 43.4641C68.2411 43.4303 68.3934 43.3965 68.5504 43.3617C68.7009 43.3261 68.8514 43.2905 69.0065 43.2538C69.6989 43.0946 70.3208 42.9754 71.0342 42.9956C71.0342 42.8911 71.0342 42.7866 71.0342 42.6789C71.5781 42.5483 72.1225 42.4204 72.6671 42.293C72.8186 42.2565 72.9701 42.2201 73.1263 42.1826C74.1693 41.9402 75.1908 41.7978 76.2592 41.7289C76.2592 41.6244 76.2592 41.5199 76.2592 41.4122C76.4423 41.3794 76.6254 41.3465 76.814 41.3126C78.6111 40.9833 80.3952 40.6077 82.177 40.2049C82.2837 40.1809 82.3905 40.1569 82.5005 40.1321C83.5427 39.897 84.5745 39.6511 85.6009 39.3539C85.8244 39.304 86.0487 39.2574 86.2738 39.2153C86.8291 39.1096 87.3811 38.9944 87.9326 38.8709C88.0665 38.8413 88.2003 38.8118 88.3382 38.7814C88.6082 38.7217 88.878 38.661 89.1475 38.5991C89.2732 38.5716 89.3988 38.5441 89.5283 38.5158C89.6973 38.4778 89.6973 38.4778 89.8697 38.439C90.2436 38.3983 90.4757 38.4242 90.8259 38.5622Z" fill="#E9530C"/>
<path d="M117.109 79.7289C118.128 80.2007 119.093 80.7497 119.959 81.4706C119.959 81.5751 119.959 81.6796 119.959 81.7872C120.047 81.8297 120.136 81.8721 120.226 81.9159C120.626 82.1212 121.01 82.3295 121.384 82.5789C121.384 82.6834 121.384 82.7879 121.384 82.8956C121.499 82.9315 121.613 82.9674 121.731 83.0044C122.27 83.256 122.553 83.5767 122.968 84.0039C123.126 84.158 123.285 84.3116 123.445 84.4647C125.024 85.9961 126.328 87.6134 127.401 89.5456C127.491 89.7032 127.491 89.7032 127.583 89.8641C128.1 90.8222 128.509 91.9326 128.509 93.0289C128.614 93.0289 128.718 93.0289 128.826 93.0289C129.056 93.7473 129.18 94.3242 129.143 95.0872C129.247 95.0872 129.352 95.0872 129.459 95.0872C129.513 95.3378 129.565 95.5885 129.618 95.8393C129.662 96.0487 129.662 96.0487 129.707 96.2624C129.776 96.6706 129.776 96.6706 129.776 97.3039C129.88 97.3039 129.985 97.3039 130.093 97.3039C130.196 97.7951 130.298 98.2867 130.399 98.7784C130.443 98.983 130.443 98.983 130.487 99.1918C130.853 100.98 130.918 102.754 130.922 104.574C130.924 104.935 130.929 105.295 130.934 105.656C130.942 106.804 130.946 107.817 130.409 108.862C130.251 109.021 130.251 109.021 129.888 109.074C129.304 109.001 129.149 108.772 128.776 108.328C128.666 108.199 128.556 108.071 128.442 107.938C128.193 107.596 128.193 107.596 128.193 107.279C128.088 107.279 127.984 107.279 127.876 107.279C126.935 104.825 126.935 104.825 126.679 103.904C126.433 103.035 126.05 102.233 125.659 101.421C125.398 101.421 125.137 101.421 124.868 101.421C124.823 101.61 124.779 101.8 124.733 101.995C123.588 106.713 123.588 106.713 122.136 107.883C121.575 108.125 121.199 108.146 120.593 108.071C120.056 107.729 119.666 107.341 119.326 106.804C119.326 106.699 119.326 106.595 119.326 106.487C119.221 106.487 119.117 106.487 119.009 106.487C118.896 106.278 118.789 106.066 118.683 105.854C118.592 105.678 118.592 105.678 118.499 105.498C118.211 104.478 118.621 103.417 118.93 102.44C119.002 102.212 119.073 101.984 119.143 101.756C119.174 101.658 119.206 101.559 119.238 101.457C119.48 100.485 119.509 99.526 119.511 98.5316C119.512 98.3922 119.512 98.2529 119.513 98.1093C119.514 97.6594 119.514 97.2095 119.514 96.7596C119.514 96.6066 119.514 96.4535 119.514 96.2959C119.51 93.4221 119.502 90.5503 118.816 87.7427C118.656 87.0024 118.563 86.2587 118.465 85.5081C118.308 84.3193 118.08 83.216 117.706 82.0742C117.587 81.6387 117.56 81.2859 117.584 80.8372C117.48 80.8372 117.375 80.8372 117.268 80.8372C117.215 80.4715 117.163 80.1057 117.109 79.7289Z" fill="#E9530C"/>
<path d="M106.221 62.2801C106.476 62.2787 106.476 62.2787 106.736 62.2773C107.096 62.2758 107.455 62.2748 107.814 62.2742C108.353 62.2727 108.892 62.2678 109.431 62.2627C111.936 62.2506 114.383 62.3714 116.793 63.1039C116.908 63.137 117.024 63.17 117.143 63.2041C117.396 63.2762 117.648 63.3484 117.901 63.4206C117.901 63.5251 117.901 63.6296 117.901 63.7372C118.034 63.7519 118.167 63.7666 118.305 63.7818C118.926 63.9113 119.436 64.1491 119.989 64.4497C120.092 64.5052 120.194 64.5606 120.3 64.6178C121.269 65.1576 122.201 65.7789 122.968 66.5872C122.968 66.744 122.968 66.9007 122.968 67.0622C121.825 67.3727 120.679 67.6152 119.512 67.8121C118.668 67.9562 117.83 68.1221 116.992 68.2957C114.874 68.7332 112.751 69.068 110.61 69.3647C110.187 69.4303 109.776 69.5179 109.359 69.6104C108.077 69.8483 106.767 69.8068 105.467 69.8039C105.013 69.8034 104.558 69.8071 104.104 69.8111C102.601 69.8163 101.135 69.7524 99.6474 69.5331C99.4455 69.5034 99.4455 69.5034 99.2396 69.4732C98.3097 69.321 98.3097 69.321 97.9509 68.9622C97.9147 68.5067 97.8984 68.0719 97.9014 67.6164C97.902 67.4874 97.9025 67.3583 97.9031 67.2254C97.9276 65.8657 98.2414 64.7723 98.9009 63.5789C99.0054 63.5789 99.1099 63.5789 99.2176 63.5789C99.2176 63.4744 99.2176 63.3699 99.2176 63.2622C99.3839 63.2316 99.5503 63.201 99.7216 63.1695C101.282 62.884 101.282 62.884 102.83 62.5386C103.96 62.3165 105.073 62.2849 106.221 62.2801Z" fill="#E8530D"/>
<path d="M97.3176 122.796C97.9184 123.43 98.2351 124.142 98.5744 124.933C98.6569 125.123 98.6569 125.123 98.7412 125.317C98.9018 125.69 99.0601 126.063 99.2176 126.437C99.3342 126.712 99.3342 126.712 99.4532 126.993C100.006 128.359 100.643 130.011 100.643 131.504C100.747 131.504 100.852 131.504 100.959 131.504C101.038 132.288 101.038 132.288 101.118 133.087C101.222 133.087 101.327 133.087 101.434 133.087C101.634 133.891 101.794 134.627 101.751 135.462C101.855 135.462 101.96 135.462 102.068 135.462C102.599 138.042 102.599 138.042 102.226 138.787C102.121 138.787 102.017 138.787 101.909 138.787C101.883 138.948 101.883 138.948 101.857 139.111C101.832 139.253 101.806 139.394 101.781 139.539C101.745 139.749 101.745 139.749 101.708 139.962C101.582 140.409 101.44 140.67 101.118 141.004C100.961 141.004 100.804 141.004 100.643 141.004C100.564 141.239 100.564 141.239 100.484 141.479C100.057 141.653 100.057 141.653 99.5145 141.805C99.3271 141.859 99.1397 141.912 98.9467 141.968C98.7748 142.015 98.603 142.063 98.4259 142.112C98.23 142.174 98.034 142.236 97.8322 142.3C97.4028 142.408 97.011 142.47 96.5729 142.516C96.4453 142.53 96.3177 142.543 96.1862 142.557C96.0893 142.567 95.9924 142.577 95.8926 142.587C95.7403 141.895 95.5883 141.202 95.4364 140.51C95.3849 140.275 95.3333 140.04 95.2817 139.805C95.2068 139.464 95.1322 139.124 95.0576 138.784C95.0214 138.618 95.0214 138.618 94.9845 138.45C94.8217 137.704 94.6705 136.957 94.5321 136.207C94.4915 135.934 94.4915 135.934 94.3092 135.779C94.3028 135.462 94.3025 135.146 94.3092 134.829C94.2047 134.829 94.1002 134.829 93.9926 134.829C93.9323 134.542 93.9323 134.542 93.8707 134.25C93.8157 133.994 93.7607 133.739 93.7056 133.483C93.6663 133.295 93.6663 133.295 93.6261 133.103C93.4676 132.374 93.2635 131.696 92.9898 131.001C92.8416 130.595 92.7654 130.188 92.6962 129.762C92.6711 129.612 92.646 129.462 92.6202 129.307C92.6028 129.196 92.5855 129.085 92.5676 128.971C92.4631 128.971 92.3586 128.971 92.2509 128.971C92.2221 128.86 92.1934 128.749 92.1637 128.634C91.9733 127.915 91.7802 127.209 91.5087 126.516C91.3009 125.962 91.3009 125.962 91.3009 125.487C91.1964 125.487 91.0919 125.487 90.9842 125.487C90.932 125.121 90.8797 124.756 90.8259 124.379C92.1216 123.948 93.3812 123.637 94.7218 123.386C95.1709 123.289 95.5672 123.174 95.9915 123.003C96.8138 122.684 96.8138 122.684 97.3176 122.796Z" fill="#E9530C"/>
<path d="M109.509 144.962C109.46 145.047 109.411 145.132 109.361 145.22C109.158 145.672 109.066 146.05 109.034 146.546C109.287 146.953 109.47 147.01 109.935 147.129C110.116 147.154 110.116 147.154 110.301 147.179C110.353 146.97 110.405 146.761 110.459 146.546C110.668 146.493 110.877 146.441 111.093 146.387C111.076 146.485 111.059 146.582 111.041 146.682C111.022 146.81 111.003 146.938 110.984 147.07C110.964 147.197 110.943 147.324 110.923 147.454C110.9 147.824 110.9 147.824 111.149 148.097C111.397 148.319 111.397 148.319 111.716 148.277C112.07 148.14 112.07 148.14 112.359 147.802C112.676 147.496 112.676 147.496 113.309 147.496C113.309 147.652 113.309 147.809 113.309 147.971C113.205 147.971 113.1 147.971 112.993 147.971C112.836 148.519 112.836 148.519 112.676 149.079C113.095 149.304 113.48 149.446 113.943 149.554C113.962 150.23 113.977 150.905 113.986 151.581C113.99 151.811 113.995 152.04 114.002 152.27C114.074 154.726 114.074 154.726 113.151 155.729C113.048 155.849 113.048 155.849 112.943 155.973C112.333 156.541 111.728 156.575 110.914 156.618C110.803 156.624 110.693 156.63 110.579 156.636C109.387 156.694 108.195 156.708 107.003 156.708C106.634 156.709 106.266 156.711 105.897 156.714C105.659 156.715 105.421 156.715 105.184 156.715C105.075 156.717 104.967 156.718 104.855 156.719C104.185 156.716 103.635 156.626 103.018 156.362C102.889 156.075 102.889 156.075 102.859 155.729C102.609 154.204 101.678 153.161 100.484 152.246C100.702 151.59 100.991 151.204 101.479 150.719C101.612 150.585 101.745 150.452 101.883 150.315C102.022 150.178 102.161 150.041 102.305 149.9C102.444 149.76 102.584 149.62 102.728 149.476C103.767 148.446 103.767 148.446 104.126 148.446C104.126 148.341 104.126 148.237 104.126 148.129C104.442 147.901 104.753 147.697 105.086 147.496C105.219 147.411 105.219 147.411 105.355 147.325C105.992 146.934 106.575 146.721 107.293 146.546C107.293 146.441 107.293 146.337 107.293 146.229C107.605 146.011 107.922 145.801 108.243 145.596C108.383 145.478 108.523 145.36 108.668 145.239C109.034 144.962 109.034 144.962 109.509 144.962Z" fill="#E8530C"/>
<path d="M73.7741 131.916C74.7988 132.759 74.8511 134.241 74.9926 135.462C75.0971 135.462 75.2016 135.462 75.3092 135.462C75.4645 136.124 75.4989 136.763 75.5269 137.441C75.5784 138.474 75.7395 139.435 76.0026 140.438C76.1009 140.846 76.1009 140.846 76.1009 141.321C75.9964 141.321 75.8919 141.321 75.7842 141.321C75.5269 141.004 75.5269 141.004 75.3092 140.687C74.9174 140.766 74.9174 140.766 74.5176 140.846C74.5176 141.316 74.5176 141.786 74.5176 142.271C74.3608 142.271 74.2041 142.271 74.0426 142.271C73.7754 141.954 73.7754 141.954 73.5676 141.637C73.0189 141.716 73.0189 141.716 72.4592 141.796C72.5637 142.318 72.6682 142.841 72.7759 143.379C72.3801 143.161 72.3801 143.161 71.9842 142.904C71.9842 142.799 71.9842 142.695 71.9842 142.587C71.514 142.666 71.514 142.666 71.0342 142.746C71.0342 142.85 71.0342 142.955 71.0342 143.062C70.564 143.01 70.0937 142.958 69.6092 142.904C69.6092 142.799 69.6092 142.695 69.6092 142.587C69.5137 142.557 69.4182 142.526 69.3198 142.494C69.1932 142.453 69.0667 142.412 68.9363 142.37C68.749 142.309 68.749 142.309 68.5578 142.247C68.2054 142.12 67.8819 141.97 67.5509 141.796C67.5509 141.691 67.5509 141.587 67.5509 141.479C67.4562 141.436 67.3615 141.394 67.2639 141.35C66.71 141.05 66.4848 140.814 66.2842 140.212C66.1946 139.159 66.4806 138.214 66.7592 137.204C66.8637 137.204 66.9682 137.204 67.0759 137.204C67.089 137.099 67.102 136.995 67.1155 136.887C67.2188 136.474 67.3362 136.19 67.5311 135.818C67.8844 135.143 68.1202 134.448 68.3426 133.721C68.4471 133.721 68.5516 133.721 68.6592 133.721C68.7082 133.541 68.7572 133.361 68.8077 133.176C68.9759 132.612 68.9759 132.612 69.1342 132.454C69.3568 132.435 69.5802 132.425 69.8034 132.42C69.9408 132.416 70.0782 132.412 70.2197 132.407C70.5083 132.399 70.7969 132.392 71.0856 132.386C71.7593 132.362 72.306 132.328 72.9182 132.032C73.4092 131.821 73.4092 131.821 73.7741 131.916Z" fill="#E9530D"/>
<path d="M91.4691 131.336C91.6994 131.341 91.6994 131.341 91.9342 131.346C91.9973 131.652 91.9973 131.652 92.0616 131.965C92.1181 132.237 92.1746 132.509 92.2311 132.78C92.2587 132.915 92.2862 133.049 92.3146 133.187C92.4398 133.787 92.5691 134.38 92.7457 134.967C92.9004 135.52 92.9075 136 92.8842 136.571C92.623 136.623 92.3617 136.675 92.0926 136.729C92.0926 136.833 92.0926 136.938 92.0926 137.046C91.9664 137.076 91.8403 137.107 91.7103 137.138C91.4587 137.2 91.4587 137.2 91.2019 137.263C91.0366 137.304 90.8713 137.344 90.701 137.386C90.195 137.513 90.195 137.513 89.7207 137.684C87.843 138.286 85.8066 138.192 83.8592 138.154C83.8152 138.027 83.7711 137.9 83.7256 137.77C83.5799 137.328 83.5799 137.328 83.1467 137.174C83.0161 137.132 82.8855 137.089 82.7509 137.046C82.3508 136.645 82.3936 136.505 82.3922 135.951C82.3916 135.716 82.3916 135.716 82.3909 135.476C82.3922 135.312 82.3934 135.147 82.3947 134.977C82.3934 134.817 82.3922 134.657 82.3909 134.492C82.3935 133.5 82.4993 132.622 82.7509 131.662C83.0147 131.655 83.2788 131.656 83.5426 131.662C83.5948 131.714 83.6471 131.767 83.7009 131.821C84.0931 131.839 84.4806 131.847 84.8729 131.847C85.0515 131.848 85.0515 131.848 85.2336 131.849C85.4869 131.85 85.7402 131.85 85.9935 131.85C86.3761 131.85 86.7587 131.853 87.1413 131.856C89.0059 131.874 89.0059 131.874 90.8259 131.504C90.9842 131.346 90.9842 131.346 91.4691 131.336Z" fill="#EA520D"/>
<path d="M106.531 142.221C106.722 142.217 106.722 142.217 106.917 142.213C107.04 142.213 107.163 142.213 107.29 142.213C107.4 142.213 107.511 142.212 107.625 142.212C108.023 142.29 108.162 142.422 108.401 142.746C108.431 143.329 108.431 143.329 108.401 143.854C108.296 143.854 108.192 143.854 108.084 143.854C108.084 143.958 108.084 144.063 108.084 144.171C107.98 144.171 107.875 144.171 107.768 144.171C107.728 144.266 107.688 144.362 107.647 144.461C107.317 145.039 106.766 145.3 106.184 145.596C105.709 145.724 105.709 145.724 105.393 145.754C105.393 145.858 105.393 145.963 105.393 146.071C105.131 146.225 104.862 146.368 104.591 146.506C102.911 147.462 101.54 148.834 100.356 150.351C99.4073 151.556 99.4073 151.556 98.815 151.732C98.385 151.698 98.0406 151.598 97.6343 151.454C97.3213 151.376 97.0079 151.301 96.6942 151.226C96.5368 151.185 96.3794 151.143 96.2173 151.1C95.4825 150.916 94.7394 150.787 93.9926 150.662C93.9385 149.562 93.9811 148.505 94.4676 147.496C95.2654 146.72 96.5841 146.679 97.6343 146.546C97.6343 146.441 97.6343 146.337 97.6343 146.229C97.7586 146.179 97.8829 146.129 98.0109 146.078C98.1773 146.01 98.3436 145.942 98.515 145.873C98.6785 145.807 98.842 145.74 99.0104 145.672C100.377 145.059 101.608 144.19 102.858 143.372C103.007 143.276 103.157 143.18 103.31 143.081C103.444 142.994 103.578 142.906 103.716 142.817C104.654 142.292 105.484 142.217 106.531 142.221Z" fill="#E7530D"/>
<path d="M110.776 73.3956C110.826 73.6132 110.875 73.8309 110.924 74.0487C110.952 74.1699 110.979 74.2912 111.008 74.4161C111.182 75.2492 111.271 76.033 111.272 76.8857C111.272 76.9887 111.272 77.0916 111.272 77.1977C111.273 77.4137 111.272 77.6296 111.272 77.8456C111.271 78.176 111.272 78.5063 111.273 78.8367C111.272 79.0452 111.272 79.2537 111.272 79.4685C111.272 79.659 111.272 79.8494 111.271 80.0457C111.251 80.5206 111.251 80.5206 111.093 80.9956C110.616 81.1452 110.375 81.1834 109.905 80.9956C109.403 80.5941 109.009 80.1468 108.718 79.5706C108.718 79.3616 108.718 79.1526 108.718 78.9372C108.613 78.9372 108.509 78.9372 108.401 78.9372C108.244 78.467 108.087 77.9967 107.926 77.5122C107.612 77.5645 107.299 77.6167 106.976 77.6706C106.999 77.873 107.022 78.0755 107.045 78.2841C107.075 78.5546 107.105 78.8251 107.134 79.0956C107.149 79.2284 107.164 79.3613 107.18 79.4982C107.418 81.6941 107.418 81.6941 107.134 82.2622C106.778 82.2523 106.778 82.2523 106.343 82.1039C106.056 81.6487 106.056 81.6487 105.907 81.3506C105.566 80.7382 105.123 80.1977 104.697 79.6423C104.443 79.2539 104.443 79.2539 104.443 78.7789C104.338 78.7789 104.234 78.7789 104.126 78.7789C102.764 76.1522 102.764 76.1522 102.859 75.1372C103.052 75.1176 103.245 75.098 103.443 75.0779C103.829 75.0386 104.127 74.9785 104.486 74.8292C104.937 74.6549 105.365 74.5527 105.839 74.4581C106.098 74.4061 106.098 74.4061 106.363 74.353C106.543 74.3179 106.722 74.2828 106.907 74.2466C107.087 74.2103 107.266 74.1739 107.452 74.1365C108.793 73.8706 108.793 73.8706 109.509 73.8706C109.509 73.7661 109.509 73.6616 109.509 73.5539C109.967 73.4231 110.283 73.3956 110.776 73.3956Z" fill="#E8530D"/>
<path d="M77.5166 127.476C78.2127 127.576 78.6147 127.792 79.1525 128.239C79.6898 129.055 79.4257 130.058 79.3082 130.982C79.2438 131.558 79.23 132.132 79.228 132.711C79.2275 132.823 79.227 132.934 79.2265 133.049C79.2379 134.008 79.4257 134.901 79.6356 135.836C79.9538 137.55 79.9005 139.213 78.9311 140.687C78.7812 140.9 78.63 141.111 78.4759 141.321C77.7593 141.235 77.7593 141.235 77.4393 140.924C76.9172 140.031 76.8242 139.263 76.794 138.236C76.7623 137.366 76.6295 136.548 76.4374 135.7C76.4117 135.584 76.3861 135.469 76.3597 135.35C76.1128 134.299 75.7377 133.31 75.2993 132.325C75.2231 132.152 75.2231 132.152 75.1453 131.976C74.9831 131.625 74.9831 131.625 74.6759 131.187C74.6759 130.388 74.978 130.002 75.4979 129.447C75.9458 128.949 76.3249 128.397 76.7144 127.853C77.0509 127.546 77.0509 127.546 77.5166 127.476Z" fill="#E8530C"/>
<path d="M121.068 151.137C121.761 151.219 122.443 151.305 123.126 151.454C123.126 151.558 123.126 151.663 123.126 151.771C123.287 151.788 123.448 151.805 123.613 151.823C124.809 151.958 125.959 152.13 127.123 152.449C127.557 152.562 127.988 152.638 128.43 152.711C129.057 152.833 129.401 152.966 129.776 153.512C129.974 153.948 129.974 153.948 130.093 154.304C129.91 154.402 129.727 154.5 129.538 154.601C129.436 154.656 129.333 154.711 129.227 154.768C128.283 155.167 127.296 155.31 126.283 155.412C126.104 155.431 126.104 155.431 125.921 155.451C124.707 155.578 123.491 155.68 122.274 155.777C122.126 155.789 121.978 155.801 121.826 155.814C121.695 155.824 121.564 155.834 121.429 155.845C121.07 155.879 121.07 155.879 120.738 155.97C120.256 156.09 119.781 156.06 119.286 156.055C119.086 156.054 118.886 156.053 118.68 156.051C118.528 156.049 118.375 156.047 118.218 156.046C118.259 155.034 118.813 154.392 119.395 153.611C119.49 153.48 119.585 153.348 119.682 153.212C120.204 152.5 120.204 152.5 120.434 152.246C120.539 152.246 120.643 152.246 120.751 152.246C120.774 152.121 120.797 151.997 120.82 151.87C120.909 151.454 120.909 151.454 121.068 151.137Z" fill="#EA520F"/>
<path d="M130.568 155.729C130.568 156.204 130.568 156.204 130.151 156.681C129.305 157.367 128.303 157.448 127.252 157.599C127.042 157.632 126.831 157.665 126.621 157.698C124.821 157.97 123.021 158.073 121.201 158.084C120.906 158.072 120.906 158.072 120.751 158.262C120.299 158.297 119.851 158.322 119.399 158.341C119.261 158.348 119.122 158.354 118.98 158.361C118.535 158.381 118.089 158.401 117.644 158.421C117.064 158.447 116.485 158.473 115.906 158.5C115.762 158.506 115.618 158.513 115.47 158.519C114.693 158.555 113.919 158.602 113.143 158.662C111.217 158.796 109.283 158.798 107.352 158.826C107.247 158.828 107.141 158.829 107.032 158.831C105.634 158.852 104.236 158.87 102.838 158.888C102.256 158.895 101.674 158.904 101.092 158.913C100.251 158.925 99.4106 158.934 98.5697 158.941C98.2645 158.944 97.9594 158.947 97.6543 158.952C97.2352 158.959 96.8164 158.962 96.3973 158.963C96.2762 158.966 96.1551 158.969 96.0303 158.971C95.4521 158.969 95.1267 158.912 94.6321 158.602C94.268 158.219 94.1942 157.991 94.1509 157.471C94.5303 157.466 94.9096 157.463 95.2889 157.461C95.3956 157.459 95.5022 157.458 95.6121 157.457C96.0441 157.455 96.4552 157.456 96.879 157.545C97.4497 157.654 98.0191 157.686 98.598 157.716C98.7229 157.723 98.8478 157.73 98.9765 157.736C100.408 157.807 101.839 157.813 103.272 157.814C103.56 157.814 103.849 157.815 104.137 157.815C104.736 157.816 105.335 157.817 105.934 157.817C106.696 157.817 107.457 157.819 108.218 157.821C108.812 157.823 109.405 157.824 109.999 157.823C110.28 157.824 110.56 157.824 110.84 157.826C112.351 157.832 113.801 157.775 115.297 157.55C116.14 157.427 116.986 157.367 117.835 157.307C118.011 157.293 118.186 157.28 118.367 157.267C119.107 157.211 119.846 157.157 120.586 157.102C121.13 157.062 121.675 157.021 122.219 156.98C122.388 156.968 122.556 156.956 122.729 156.944C122.883 156.932 123.037 156.92 123.196 156.908C123.4 156.893 123.4 156.893 123.608 156.878C123.918 156.869 123.918 156.869 124.076 156.679C124.508 156.653 124.939 156.635 125.372 156.62C126.847 156.554 128.246 156.353 129.65 155.872C130.093 155.729 130.093 155.729 130.568 155.729Z" fill="#BD5F3C"/>
<path d="M116.318 69.9122C115.811 70.1076 115.304 70.3026 114.797 70.4967C114.491 70.6148 114.184 70.734 113.879 70.8567C113.206 71.1242 112.6 71.2627 111.884 71.3372C111.884 71.4417 111.884 71.5462 111.884 71.6539C111.691 71.7055 111.498 71.7572 111.3 71.8104C111.043 71.8802 110.786 71.9501 110.529 72.02C110.339 72.0707 110.339 72.0707 110.145 72.1224C109.551 72.2847 108.983 72.4561 108.421 72.7078C107.896 72.9334 107.54 72.9619 106.976 72.9206C106.976 73.0251 106.976 73.1296 106.976 73.2372C101.953 74.1481 101.953 74.1481 100.264 73.1277C99.6391 72.6195 99.1865 72.0031 98.7426 71.3372C98.7426 71.1282 98.7426 70.9192 98.7426 70.7039C98.9418 70.7006 99.141 70.6974 99.3462 70.694C99.4583 70.6922 99.5703 70.6903 99.6858 70.6884C100.009 70.7039 100.009 70.7039 100.484 70.8622C103.375 71.2437 106.279 71.0517 109.163 70.7237C109.284 70.7099 109.406 70.6961 109.531 70.6819C111.887 70.5389 111.887 70.5389 114.101 69.9122C114.357 69.872 114.615 69.8401 114.873 69.8133C115.01 69.7982 115.146 69.7831 115.287 69.7675C115.669 69.7544 115.955 69.7991 116.318 69.9122Z" fill="#D25A28"/>
<path d="M93.8343 151.929C94.0331 151.971 94.2318 152.013 94.4367 152.056C94.5644 152.083 94.6921 152.11 94.8236 152.138C95.1018 152.197 95.3799 152.256 95.6581 152.314C96.3519 152.461 97.0457 152.602 97.7431 152.73C99.2145 153.029 100.417 153.649 101.434 154.779C101.686 155.388 101.765 155.868 101.751 156.521C100.262 156.54 98.7898 156.495 97.3048 156.394C96.9759 156.372 96.647 156.351 96.3181 156.33C96.1066 156.317 95.8951 156.303 95.6835 156.289C95.4953 156.276 95.3071 156.264 95.1132 156.251C94.7198 156.213 94.3703 156.157 93.9926 156.046C93.8078 154.673 93.8188 153.311 93.8343 151.929Z" fill="#E8530F"/>
<path d="M64.0676 144.487C64.3533 144.519 64.3533 144.519 64.7009 144.646C64.9594 144.98 64.9594 144.98 65.1957 145.398C65.2745 145.534 65.3533 145.67 65.4344 145.811C65.6396 146.207 65.8027 146.606 65.9676 147.021C66.0459 147.125 66.1243 147.23 66.2051 147.337C66.5868 147.846 66.7592 148.284 66.7592 148.921C66.6547 148.921 66.5502 148.921 66.4426 148.921C66.4007 149.015 66.3588 149.109 66.3156 149.206C66.1193 149.566 65.9244 149.775 65.6243 150.051C64.948 150.708 64.4092 151.442 63.8598 152.206C63.7617 152.34 63.6636 152.475 63.5626 152.614C63.1946 153.119 62.8312 153.625 62.4842 154.146C61.9993 154.185 61.9993 154.185 61.5342 154.146C61.3759 153.987 61.3759 153.987 61.3561 153.384C61.361 152.928 61.389 152.523 61.5342 152.087C61.6387 152.087 61.7432 152.087 61.8509 152.087C61.8531 151.989 61.8554 151.891 61.8577 151.79C61.9201 150.631 62.2158 149.622 62.6024 148.537C62.7969 147.982 62.9614 147.429 63.1176 146.862C63.2221 146.862 63.3266 146.862 63.4342 146.862C63.4587 146.627 63.4587 146.627 63.4837 146.387C63.578 145.709 63.812 145.121 64.0676 144.487Z" fill="#E8530A"/>
<path d="M103.493 120.262C103.536 123.846 103.536 123.846 102.859 125.329C102.73 125.768 102.615 126.208 102.502 126.651C102.385 127.07 102.236 127.462 102.068 127.862C101.963 127.862 101.859 127.862 101.751 127.862C101.699 128.071 101.646 128.28 101.593 128.496C101.488 128.496 101.384 128.496 101.276 128.496C101.045 128.076 100.959 127.879 100.959 127.387C100.855 127.387 100.75 127.387 100.643 127.387C100.603 127.259 100.603 127.259 100.563 127.129C100.442 126.736 100.319 126.344 100.197 125.952C100.156 125.818 100.115 125.684 100.072 125.546C99.8827 124.94 99.6892 124.35 99.4303 123.77C99.1694 123.157 99.117 122.662 99.0592 122.004C99.843 121.769 99.843 121.769 100.643 121.529C100.643 121.424 100.643 121.32 100.643 121.212C102.976 120.262 102.976 120.262 103.493 120.262Z" fill="#E8530D"/>
<path d="M115.368 149.079C115.609 149.093 115.85 149.118 116.09 149.148C116.221 149.164 116.352 149.18 116.486 149.197C116.587 149.21 116.688 149.224 116.793 149.237C116.793 149.342 116.793 149.446 116.793 149.554C117.013 149.583 117.013 149.583 117.238 149.613C117.743 149.712 117.743 149.712 118.218 150.029C118.4 150.081 118.583 150.133 118.772 150.187C119.326 150.346 119.326 150.346 119.801 150.662C119.704 151.29 119.389 151.7 119.019 152.206C118.85 152.44 118.85 152.44 118.678 152.679C118.579 152.797 118.479 152.915 118.376 153.037C118.271 153.037 118.167 153.037 118.059 153.037C118.037 153.206 118.037 153.206 118.013 153.379C117.882 153.903 117.666 154.25 117.367 154.7C116.941 155.342 116.941 155.342 116.575 156.018C116.318 156.362 116.318 156.362 115.89 156.44C115.656 156.426 115.656 156.426 115.417 156.412C115.26 156.405 115.102 156.397 114.94 156.39C114.76 156.376 114.76 156.376 114.576 156.362C114.696 155.319 114.696 155.319 114.895 154.977C115.122 154.458 115.104 153.944 115.111 153.387C115.114 153.268 115.116 153.15 115.119 153.028C115.127 152.652 115.134 152.276 115.14 151.899C115.147 151.521 115.154 151.143 115.163 150.765C115.168 150.53 115.172 150.295 115.175 150.06C115.192 149.255 115.192 149.255 115.368 149.079Z" fill="#E9530C"/>
<path d="M71.2025 124.686C71.4327 124.691 71.4327 124.691 71.6676 124.696C71.5634 125.208 71.3785 125.606 71.1233 126.061C70.9956 126.291 70.9956 126.291 70.8654 126.526C70.7036 126.814 70.5419 127.101 70.38 127.389C68.5474 130.626 68.5474 130.626 67.0759 134.037C66.9714 134.037 66.8669 134.037 66.7592 134.037C66.6025 134.612 66.4457 135.187 66.2842 135.779C66.1797 135.779 66.0752 135.779 65.9676 135.779C65.9476 135.865 65.9276 135.95 65.907 136.039C65.5919 137.243 65.1474 138.418 64.7009 139.579C64.5964 139.579 64.4919 139.579 64.3842 139.579C64.3669 139.669 64.3495 139.759 64.3317 139.852C64.3066 139.974 64.2815 140.096 64.2556 140.222C64.2317 140.342 64.2078 140.461 64.1832 140.584C64.0362 141.118 63.8126 141.604 63.5926 142.112C63.4631 142.484 63.3378 142.856 63.2165 143.23C62.953 144.037 62.6766 144.838 62.3853 145.635C62.0511 146.561 61.7738 147.491 61.5342 148.446C61.4297 148.446 61.3252 148.446 61.2176 148.446C61.2153 148.54 61.2131 148.634 61.2108 148.731C61.1646 149.534 61.0345 150.148 60.6733 150.87C60.199 151.827 60.0632 152.775 59.9509 153.829C59.7942 153.829 59.6374 153.829 59.4759 153.829C59.3138 152.057 59.7956 150.454 60.2676 148.762C60.3721 148.762 60.4766 148.762 60.5842 148.762C60.5989 148.508 60.5989 148.508 60.6139 148.248C60.7086 147.473 61.0027 146.814 61.3202 146.106C61.5363 145.591 61.711 145.073 61.8842 144.542C62.0871 143.939 62.3202 143.348 62.5535 142.755C62.6018 142.632 62.6501 142.509 62.6998 142.382C63.046 141.499 63.3952 140.617 63.7509 139.737C63.8554 139.737 63.9599 139.737 64.0676 139.737C64.0806 139.607 64.0937 139.476 64.1072 139.341C64.2074 138.874 64.3028 138.611 64.5228 138.203C64.871 137.55 65.0388 136.888 65.2198 136.173C65.3502 135.724 65.545 135.372 65.8092 134.987C65.8876 134.752 65.8876 134.752 65.9676 134.512C66.0721 134.512 66.1766 134.512 66.2842 134.512C66.5194 133.572 66.5194 133.572 66.7592 132.612C66.8637 132.612 66.9682 132.612 67.0759 132.612C67.0922 132.469 67.1086 132.325 67.1254 132.177C67.2342 131.662 67.2342 131.662 67.4519 131.375C67.7059 131.033 67.7938 130.807 67.9171 130.405C68.2976 129.205 69.8279 124.714 71.2025 124.686Z" fill="#8F4A35"/>
<path d="M72.9342 125.487C73.7655 125.559 74.5141 125.714 75.3092 125.962C75.3092 126.067 75.3092 126.171 75.3092 126.279C75.7011 126.357 75.7011 126.357 76.1009 126.437C76.0047 126.965 75.8242 127.27 75.4874 127.684C75.1196 128.138 74.759 128.594 74.4124 129.065C74.3383 129.163 74.2642 129.262 74.1878 129.364C74.0412 129.56 73.8962 129.756 73.7532 129.955C73.1327 130.77 72.4893 131.109 71.4604 131.268C71.2969 131.277 71.1334 131.287 70.965 131.296C70.7155 131.312 70.7155 131.312 70.4609 131.328C70.2745 131.337 70.2745 131.337 70.0842 131.346C70.0982 131.121 70.1153 130.897 70.1337 130.673C70.1429 130.548 70.1521 130.423 70.1616 130.294C70.2579 129.85 70.4364 129.641 70.7176 129.287C70.868 128.996 71.0127 128.702 71.153 128.407C72.2471 126.174 72.2471 126.174 72.9342 125.487Z" fill="#E6540C"/>
<path d="M65.1759 141.637C65.7171 141.732 65.9936 141.921 66.403 142.28C67.6152 143.258 69.1089 143.933 70.5592 144.487C70.4814 145.147 70.1402 145.404 69.6488 145.823C69.1984 146.213 68.7577 146.594 68.3525 147.03C68.0259 147.337 68.0259 147.337 67.5509 147.337C67.1777 146.936 67.0759 146.788 67.0759 146.229C66.9714 146.229 66.8669 146.229 66.7592 146.229C66.6999 146.12 66.6405 146.011 66.5793 145.898C66.4982 145.749 66.4172 145.6 66.3337 145.447C66.248 145.288 66.1623 145.128 66.074 144.964C65.9123 144.673 65.7439 144.385 65.5643 144.104C65.0684 143.317 64.9447 142.822 65.1134 141.899C65.1341 141.813 65.1547 141.726 65.1759 141.637Z" fill="#CB5F2A"/>
<path d="M85.1787 17.0713C87.6538 15.6423 90.7036 15.6424 93.1787 17.0713L160.09 55.7031C162.565 57.1322 164.09 59.7728 164.09 62.6309V139.894C164.09 142.752 162.565 145.392 160.09 146.821L93.1787 185.453C90.7036 186.882 87.6538 186.882 85.1787 185.453L45.1787 162.358L18.2676 146.821C15.7925 145.392 14.2676 142.752 14.2676 139.894V62.6309C14.2676 59.7729 15.7925 57.1322 18.2676 55.7031L85.1787 17.0713ZM90.5088 33.5752C89.3244 33.5872 88.1734 33.6521 87.0264 33.9707C86.8687 34.1563 86.868 34.1565 86.5723 34.1973C85.4973 34.3927 84.44 34.6419 83.3838 34.9209C82.6848 35.1288 81.9946 35.3016 81.2783 35.4336C81.1636 35.4542 81.0518 35.4742 80.9404 35.4941C80.7131 35.5358 80.4852 35.5775 80.2578 35.6191C80.0826 35.6507 79.9122 35.6813 79.7422 35.7119V36.0293C79.2372 36.0178 78.757 36.0333 78.2549 36.0928C78.071 36.1216 77.8924 36.1498 77.7139 36.1777C77.3864 36.2277 77.0595 36.282 76.7344 36.3457C76.2206 36.6302 76.2204 36.63 75.6055 36.6865C75.4746 36.7085 75.3468 36.7297 75.2197 36.751C74.969 36.7941 74.7185 36.8378 74.4678 36.8809C74.2695 36.9143 74.0763 36.9461 73.8838 36.9785V37.2959C73.4687 37.2761 73.4684 37.2761 72.9346 37.2959C72.2702 37.5226 71.6345 37.6896 70.9443 37.8086C70.8203 37.8292 70.6995 37.8492 70.5791 37.8691C70.3354 37.9108 70.0913 37.9525 69.8477 37.9941C69.6591 38.0256 69.476 38.0563 69.293 38.0869V38.4043C68.8524 38.3912 68.4452 38.4122 68.0078 38.4736C67.8357 38.5039 67.6681 38.5331 67.501 38.5625C67.2009 38.6146 66.9005 38.6671 66.6006 38.7207V39.0371C66.1713 39.0246 65.7761 39.0421 65.3506 39.1065C65.1176 39.1514 65.1173 39.1513 64.8887 39.1953C64.6148 39.2474 64.3409 39.2999 64.0674 39.3535V39.6709H63.751C62.788 40.3827 62.1783 41.1074 61.9199 42.3125C61.8966 42.4371 61.8732 42.5578 61.8506 42.6787C61.5123 44.4253 61.3503 46.1671 61.3701 47.9463C61.372 48.0395 61.3741 48.1303 61.376 48.2207H61.0596C60.9443 49.631 60.8521 51.0415 60.7715 52.4541C60.7616 52.6297 60.7518 52.8003 60.7422 52.9707H60.4258C60.3181 53.832 60.2139 54.668 60.1094 55.5039H59.793C59.7433 55.7833 59.7425 55.7838 59.6338 56.1377C59.3924 56.6104 59.1746 57.0246 59.0508 57.542C59.034 57.6564 59.0173 57.7679 59.001 57.8789H58.6846C58.5769 58.4172 58.4717 58.9395 58.3672 59.4619H58.0508C57.9431 60.0541 57.8389 60.6294 57.7344 61.2041H57.418C57.3103 61.7424 57.2051 62.2647 57.1006 62.7871H56.7842C56.7303 63.1639 56.6782 63.5298 56.626 63.8955H56.3096C55.6186 65.6353 55.109 67.4072 55.6758 69.2793H55.9922C56.101 69.6353 56.1018 69.6351 56.3096 70.0703C56.7161 70.4658 56.9965 70.6757 57.5459 70.8223C57.6637 70.8357 57.7783 70.8492 57.8926 70.8623V71.1787H58.3672V71.6543H58.0508C57.9226 72.4846 57.8034 73.3085 57.5762 74.1182C57.4381 74.5928 57.3432 75.0472 57.2588 75.5332C57.1716 76.0356 57.072 76.5061 56.9326 76.9981C56.7843 77.5122 56.7842 77.5124 56.7051 78.0664C56.6413 78.615 56.6413 78.615 56.4775 79.1055C56.2943 79.7036 56.2943 79.7039 56.0508 81.5C56.031 81.6514 56.0113 81.7983 55.9922 81.9453L55.5176 82.1035C55.4637 82.2112 55.4116 82.3164 55.3594 82.4209C54.804 82.606 54.4044 82.8646 53.9346 83.2119C53.8807 83.3734 53.8286 83.5308 53.7764 83.6875H53.3008C52.984 84.1626 52.7266 84.3743 52.2715 84.7061C51.8743 84.9943 51.6023 85.1957 51.3564 85.6221C51.3178 85.7178 51.2797 85.8114 51.2422 85.9043H50.9258C50.8424 85.9889 50.7616 86.0712 50.6807 86.1533C50.3222 86.5833 49.9698 87.0175 49.5742 87.4141C49.387 87.592 49.2063 87.7767 49.0264 87.9619C48.9725 88.1234 48.9194 88.2808 48.8672 88.4375C48.551 88.5956 48.5509 88.5958 48.373 89.0801C48.3259 89.2382 48.2801 89.3924 48.2344 89.5459H47.918C47.7597 90.0208 47.5574 90.3682 47.2939 90.792C47.0358 91.2068 46.8114 91.6003 46.6211 92.0508C46.5776 92.1681 46.5344 92.2817 46.4922 92.3955H46.1758C45.7618 93.2456 45.4566 94.0556 45.2725 94.9844C45.2488 95.1159 45.2488 95.1162 45.2256 95.2451H44.9092C44.8553 95.4066 44.8032 95.564 44.751 95.7207C44.4718 96.3257 44.2823 96.7916 44.167 97.4522C44.1502 97.617 44.1335 97.7775 44.1172 97.9375H43.8008C43.6676 98.3372 43.6012 98.6614 43.5537 99.0752C43.5302 99.2804 43.5072 99.4796 43.4844 99.6787H43.168C43.0908 100.008 43.0043 100.326 42.8955 100.646C42.7046 101.184 42.542 101.687 42.4551 102.252C42.4282 102.454 42.4021 102.65 42.376 102.846C41.9838 104.29 41.8342 105.617 41.8359 107.105C41.839 107.496 41.8414 107.886 41.8389 108.276C41.8369 108.536 41.8366 108.796 41.8369 109.056C41.8374 109.183 41.8374 109.306 41.8379 109.43C41.828 110.624 42.1049 111.554 42.6729 112.603C43.143 113.349 43.5105 114.047 44.4043 114.305C44.6592 114.355 44.6594 114.355 44.9092 114.404V114.721C45.4503 114.872 45.9539 114.899 46.5166 114.9C46.6397 114.9 46.7595 114.899 46.8789 114.898C48.354 114.906 49.5336 114.693 50.7578 113.82C50.9226 113.696 51.0823 113.575 51.2422 113.454C51.5047 113.629 51.7659 113.808 52.0137 114.004C52.4923 114.383 52.8676 114.687 53.459 114.859C53.5667 114.866 53.6719 114.872 53.7764 114.879V115.195C54.1047 115.289 54.4056 115.353 54.7471 115.374C54.9285 115.374 54.9289 115.375 55.1064 115.375C55.2411 115.375 55.3722 115.376 55.5029 115.376C55.6422 115.375 55.7779 115.375 55.9131 115.374C56.0524 115.375 56.188 115.375 56.3232 115.376C56.458 115.376 56.589 115.375 56.7197 115.375C57.1917 115.374 57.5963 115.325 58.0508 115.195V114.879C58.5258 114.879 58.5261 114.879 58.9912 114.651C59.3802 114.453 59.6862 114.327 60.1094 114.245C60.1632 114.353 60.2153 114.458 60.2676 114.563C60.5479 114.831 60.7439 115.04 60.9307 115.384C60.9744 115.481 61.0171 115.576 61.0596 115.671H61.376V115.987L61.6436 116.255C61.9967 116.588 61.9972 116.588 62.1943 116.88C62.5274 117.376 62.8163 117.742 63.2764 118.135C63.7673 118.509 63.7669 118.509 64.1562 119.006C64.6395 119.588 65.0859 119.994 65.7793 120.302C65.8971 120.342 66.0117 120.382 66.126 120.421V120.737L66.6006 120.896V121.212C66.8159 121.266 67.0254 121.318 67.2344 121.37C66.8137 121.924 66.4829 122.372 66.2344 123.023C66.1974 123.161 66.1619 123.295 66.126 123.429H65.8096C65.7019 123.859 65.5967 124.277 65.4922 124.695H65.1758C64.8616 125.353 64.5746 125.969 64.4238 126.685C64.4104 126.816 64.3968 126.943 64.3838 127.07H64.0674C63.9597 127.555 63.8554 128.025 63.751 128.495H63.4346C63.3269 128.926 63.2217 129.345 63.1172 129.763H62.8008C62.6932 130.247 62.5888 130.717 62.4844 131.188H62.168C62.1142 131.349 62.061 131.505 62.0088 131.662C61.7575 132.217 61.5455 132.716 61.4258 133.314C61.409 133.452 61.3923 133.587 61.376 133.721H61.0596C60.9519 134.259 60.8467 134.781 60.7422 135.304H60.4258C60.351 135.642 60.2614 135.951 60.1299 136.271C60.0756 136.39 60.0234 136.505 59.9707 136.62C59.8591 136.868 59.7465 137.115 59.6338 137.362C59.3804 137.909 59.1699 138.419 59.0508 139.015C59.034 139.153 59.0173 139.287 59.001 139.421H58.6846C58.5769 140.013 58.4717 140.587 58.3672 141.162H58.0508C57.9431 141.808 57.8389 142.436 57.7344 143.063H57.418C57.197 143.725 56.9758 144.388 56.7549 145.051L56.626 145.438H56.3096C56.195 145.847 56.1248 146.242 56.0615 146.664C56.038 146.839 56.015 147.009 55.9922 147.179H55.6758C55.614 147.562 55.5324 147.928 55.4072 148.296C55.2387 148.771 55.0693 149.232 54.9873 149.73C54.9541 150.041 54.9188 150.352 54.8838 150.662C54.3496 152.387 54.3627 154.202 55.043 155.887H55.3594C55.3891 156.144 55.3889 156.145 55.5176 156.521C55.8941 157.043 56.172 157.404 56.7549 157.688C56.8724 157.722 56.9865 157.755 57.1006 157.787V158.104C58.179 158.643 59.0745 158.971 60.2939 158.918C60.3926 158.91 60.4883 158.903 60.584 158.896V159.212H62.4844V158.896C63.1412 158.906 63.7536 158.947 64.3838 158.737V158.421H64.8594C65.736 158.073 66.2459 157.303 66.7393 156.53C66.7998 156.419 66.8592 156.312 66.918 156.204L67.2344 156.521H67.5508V156.046H67.2344C67.2882 155.938 67.3403 155.833 67.3926 155.729C67.5541 155.574 67.7122 155.415 67.8672 155.254C67.921 155.092 67.9741 154.936 68.0264 154.779C68.3452 154.474 68.5058 154.291 68.6885 153.878C68.7322 153.754 68.775 153.632 68.8174 153.512H69.1338C69.1876 153.297 69.2407 153.088 69.293 152.879H69.6094C69.926 152.602 69.9255 152.601 70.2422 152.245C70.4458 151.824 70.5962 151.574 70.9258 151.227C71.0704 151.089 71.2102 150.954 71.3506 150.82C71.6894 150.473 72.0225 150.127 72.3984 149.819C72.6346 149.631 72.8642 149.435 73.0928 149.237C73.1466 149.076 73.1987 148.918 73.251 148.762C73.5676 148.762 73.5679 148.762 73.8994 148.641C74.0289 148.585 74.1546 148.53 74.2803 148.476C74.6611 148.314 74.661 148.314 74.9922 148.129C75.0998 147.967 75.2051 147.811 75.3096 147.654C75.7566 147.543 75.9887 147.464 76.3877 147.198C77.2975 146.592 78.0097 146.319 79.1094 146.387V146.704H83.0674V146.387C83.2794 146.363 83.2797 146.363 83.4873 146.34C84.5451 146.119 85.5675 145.427 86.2344 144.576C86.3419 144.438 86.4464 144.305 86.5508 144.171H87.0264C87.0802 143.686 87.1323 143.215 87.1846 142.745C87.4665 142.732 87.7484 142.72 88.0303 142.705C88.2075 142.696 88.2081 142.696 88.3818 142.687C89.0614 142.657 89.699 142.61 90.3555 142.423C90.5154 142.371 90.6709 142.321 90.8262 142.271C90.7001 142.703 90.6334 143.131 90.5781 143.577C90.5546 143.779 90.5316 143.975 90.5088 144.171H90.1924C90.1331 144.538 90.0618 144.889 89.9287 145.237C89.6018 146.088 89.4767 146.912 89.3809 147.813C89.3393 148.236 89.294 148.657 89.2422 149.079C88.9114 149.41 88.9114 149.411 88.8965 152.109C88.8964 152.283 88.8966 152.452 88.8965 152.621C88.8852 153.595 88.8892 154.528 89.0801 155.485C89.2454 156.299 89.2978 157.093 89.3271 157.922C89.3346 158.188 89.3344 158.189 89.3418 158.45C89.3591 158.962 89.3763 159.473 89.3916 159.984C89.3948 160.098 89.3982 160.21 89.4014 160.32H89.7178C89.8761 160.531 90.034 160.743 90.1924 160.954H90.5088C90.6166 161.361 90.7571 161.67 91.0439 161.981C92.2346 163.045 93.2693 163.576 94.8838 163.588C95.0832 163.585 95.2772 163.583 95.4707 163.58C96.1286 163.581 96.7864 163.582 97.4443 163.576C98.0335 163.571 98.6228 163.569 99.2119 163.568C100.2 163.568 101.187 163.564 102.175 163.558C103.577 163.549 104.98 163.544 106.382 163.541C107.363 163.539 108.344 163.537 109.324 163.533C109.56 163.532 109.796 163.531 110.031 163.53C110.714 163.528 111.397 163.526 112.08 163.521C112.292 163.52 112.499 163.519 112.705 163.518C113.003 163.517 113.003 163.517 113.295 163.516C113.479 163.514 113.658 163.513 113.837 163.512C114.294 163.509 114.709 163.492 115.158 163.409C115.535 163.319 115.536 163.318 115.968 163.293C116.133 163.285 116.294 163.277 116.454 163.27C116.642 163.26 116.825 163.251 117.008 163.242C117.41 163.224 117.811 163.204 118.213 163.185C118.858 163.153 119.503 163.123 120.147 163.092C120.794 163.061 121.441 163.03 122.087 162.998C122.294 162.988 122.496 162.978 122.697 162.968C122.998 162.954 122.999 162.954 123.294 162.94C123.481 162.931 123.662 162.922 123.843 162.913C124.132 162.899 124.421 162.881 124.709 162.854C125.031 162.671 125.032 162.672 125.452 162.637C125.634 162.618 125.81 162.6 125.986 162.582C126.382 162.54 126.777 162.499 127.173 162.458C127.38 162.437 127.582 162.416 127.783 162.396C127.98 162.375 128.171 162.354 128.361 162.334C128.675 162.302 128.989 162.266 129.301 162.221C129.476 162.02 129.476 162.019 129.891 161.942C130.157 161.878 130.157 161.878 130.419 161.814C130.599 161.771 130.774 161.728 130.949 161.686C131.089 161.652 131.224 161.619 131.359 161.587V161.271C131.745 161.211 131.746 161.211 132.151 161.112L132.31 160.796C132.471 160.742 132.627 160.689 132.784 160.637L132.942 160.162H133.259C133.697 159.902 133.874 159.729 134.091 159.262C134.131 159.137 134.17 159.016 134.209 158.896H134.526C134.572 158.817 134.615 158.74 134.659 158.663C134.718 158.554 134.776 158.448 134.833 158.342C135.35 157.408 135.347 156.358 135.308 155.317C135.301 155.195 135.294 155.076 135.288 154.957C135.23 153.852 135.059 152.916 134.526 151.929H134.209C134.209 151.437 134.124 151.239 133.893 150.82H133.576V150.504C132.997 149.715 132.294 148.94 131.325 148.661C131.183 148.632 131.183 148.632 131.043 148.604V148.287C130.657 148.173 130.3 148.119 129.897 148.079C129.708 148.066 129.524 148.053 129.341 148.04C129.15 148.026 128.964 148.013 128.779 148C128.634 147.99 128.492 147.98 128.351 147.971V147.654C127.573 147.507 126.795 147.434 126.007 147.366C125.889 147.356 125.774 147.347 125.659 147.337V147.021C125.222 146.964 124.803 146.895 124.385 146.752C123.584 146.46 122.848 146.313 121.997 146.247C121.848 146.238 121.848 146.237 121.701 146.229V145.912C121.109 145.804 120.534 145.7 119.959 145.596V145.279C119.068 145.073 118.428 144.759 117.723 144.171C117.368 143.869 117.05 143.587 116.633 143.377C116.368 143.277 116.105 143.17 115.843 143.063C115.418 142.638 115.186 142.309 114.605 142.142C114.488 142.132 114.373 142.122 114.259 142.112V141.796C113.99 141.688 113.729 141.583 113.468 141.479V141.162C113.252 141.108 113.043 141.056 112.834 141.004C112.687 139.334 112.645 137.606 111.498 136.283C111.36 136.166 111.226 136.052 111.093 135.938C110.723 135.549 110.425 135.208 109.944 134.968C109.85 134.921 109.759 134.875 109.668 134.829C109.614 134.668 109.561 134.51 109.509 134.354C109.39 134.295 109.274 134.237 109.158 134.18C108.744 134.033 108.332 133.888 107.926 133.721C107.57 133.364 107.57 133.364 106.956 133.305C106.748 133.285 106.545 133.265 106.343 133.245C106.301 132.979 106.245 132.716 106.185 132.454C106.02 132.16 105.872 131.877 105.747 131.563C105.793 130.863 105.792 130.863 106.145 130.228C106.451 129.686 106.72 129.236 106.798 128.614C106.805 128.466 106.811 128.322 106.817 128.179H107.134C107.189 127.75 107.255 127.338 107.398 126.929C107.71 126.092 107.863 125.285 107.971 124.399C108.007 124.071 108.045 123.743 108.083 123.415C108.102 123.253 108.121 123.096 108.14 122.939C108.169 122.68 108.202 122.42 108.242 122.162C108.401 121.845 108.401 121.845 108.411 121.351C108.406 121.121 108.406 121.121 108.401 120.896C108.876 120.896 108.876 120.895 109.232 120.618C109.63 120.274 109.631 120.274 109.96 120.09C110.234 119.94 110.506 119.785 110.776 119.629L110.935 119.313C111.32 119.125 111.614 118.957 111.948 118.681C112.085 118.556 112.217 118.434 112.35 118.313C112.771 117.927 113.182 117.538 113.586 117.135C113.915 116.793 113.915 116.793 114.195 116.578C114.575 116.282 114.858 116.08 115.031 115.621C115.038 115.53 115.044 115.442 115.051 115.354H115.367C115.475 115.138 115.58 114.93 115.685 114.721H116.001C116.395 114.388 116.618 114.123 116.832 113.651C116.872 113.53 116.912 113.413 116.951 113.296H117.268C117.375 113.027 117.479 112.765 117.584 112.504H117.901L118.06 112.188C118.376 112.346 118.377 112.346 118.792 112.435C118.92 112.458 119.044 112.481 119.168 112.504V112.82C119.529 112.928 119.844 112.981 120.222 112.997C120.382 112.996 120.538 112.995 120.694 112.994C120.953 112.993 120.953 112.994 121.207 112.993C121.388 112.992 121.564 112.991 121.74 112.989C122.36 112.987 122.981 112.983 123.601 112.979V112.662C124.085 112.393 124.556 112.131 125.026 111.87V111.554H125.343V111.87C125.551 112.118 125.55 112.118 125.817 112.346C125.979 112.4 126.136 112.452 126.293 112.504C126.582 112.799 126.817 113.009 127.174 113.228C128.521 113.926 129.717 114.339 131.212 113.885C132.36 113.456 133.551 112.869 134.12 111.732C134.15 111.618 134.18 111.507 134.209 111.396H134.526C134.634 111.019 134.738 110.653 134.843 110.287H135.159C135.207 110.022 135.261 109.758 135.317 109.495C135.577 108.719 135.671 108.054 135.674 107.235C135.673 107.09 135.672 106.948 135.671 106.807C135.671 106.502 135.67 106.197 135.67 105.893C135.667 105.416 135.664 104.939 135.664 104.463C135.664 104.15 135.663 103.836 135.662 103.523C135.662 103.371 135.662 103.223 135.661 103.075C135.661 102.857 135.66 102.857 135.66 102.643C135.659 102.44 135.659 102.439 135.657 102.24C135.656 102.02 135.649 101.799 135.634 101.579C135.469 101.137 135.47 101.136 135.437 100.789C135.427 100.668 135.418 100.55 135.408 100.432C135.391 100.23 135.391 100.23 135.374 100.032C135.257 98.6637 135.095 97.3541 134.685 96.0371C134.508 95.5288 134.355 95.0343 134.232 94.5098C134.191 94.3093 134.151 94.1145 134.11 93.9199C134.068 93.7169 134.027 93.5194 133.985 93.3223C133.954 93.1688 133.923 93.0191 133.893 92.8701H133.576C133.576 92.2372 133.576 92.2372 133.434 91.8594C133.249 91.444 133.249 91.444 133.124 90.9873C133.062 90.7541 133.063 90.7539 133.002 90.5254C132.959 90.3662 132.918 90.2112 132.877 90.0566C132.845 89.9368 132.815 89.8205 132.784 89.7041H132.468C132.36 89.1658 132.256 88.6426 132.151 88.1201H131.834L131.518 87.0127H131.201C131.147 86.7436 131.095 86.4819 131.043 86.2207H130.726C130.726 85.904 130.726 85.9037 130.529 85.5264C130.441 85.3789 130.356 85.236 130.271 85.0928C130.014 84.6562 130.015 84.6555 129.776 84.3203H129.459C129.395 83.9509 129.349 83.736 129.082 83.4649C128.817 83.2041 128.626 82.9362 128.42 82.6279C128.222 82.3296 128.221 82.3292 128.034 82.1035H127.718C127.56 81.6288 127.559 81.6284 127.232 81.4404C127.078 81.3756 127.078 81.3761 126.926 81.3125V80.9951L126.451 80.8369V80.5205C125.851 79.8691 125.237 79.2599 124.422 78.8975C124.304 78.8572 124.19 78.8184 124.076 78.7793V78.4619C123.762 78.3247 123.762 78.325 123.442 78.1455L123.284 77.8291C123.173 77.7955 123.066 77.7621 122.958 77.7295C122.854 77.7093 122.752 77.6905 122.651 77.6709V77.3535C122.181 77.1969 121.887 77.0118 121.483 76.7305C121.096 76.4595 120.745 76.2428 120.31 76.0566C120.191 76.0131 120.075 75.971 119.959 75.9287V75.6123L119.168 75.4541C119.114 75.0773 119.061 74.7114 119.009 74.3457H118.692C119.135 74.0215 119.135 74.0219 119.561 73.8945C119.706 73.8529 119.848 73.8119 119.989 73.7715C120.136 73.7291 120.278 73.6877 120.421 73.6465C120.533 73.6149 120.642 73.5843 120.751 73.5537V73.2373C121.585 73.2373 122.25 73.0215 123.017 72.7031C123.941 72.3063 123.942 72.3056 124.877 71.9336C124.981 71.8922 125.083 71.8527 125.185 71.8125V71.4951C125.68 71.4951 125.877 71.4281 126.293 71.1787L126.451 70.8623C127.155 70.6275 127.446 70.2127 127.816 69.5859C128.494 68.3231 128.427 67.1417 128.034 65.7959H127.718C127.718 65.3044 127.632 65.1064 127.401 64.6875H127.084C126.976 64.3645 126.872 64.0508 126.768 63.7373H126.451V63.4209C125.872 62.6315 125.169 61.8568 124.2 61.5781C124.104 61.5586 124.011 61.5395 123.918 61.5205V61.2041C123.756 61.1503 123.599 61.0982 123.442 61.0459C123.389 60.9382 123.336 60.833 123.284 60.7285C123.013 60.6381 122.74 60.5526 122.463 60.4814C122.365 60.4579 122.27 60.435 122.176 60.4121V60.0957C121.558 59.7506 120.985 59.4409 120.276 59.3438C120.115 59.3303 119.958 59.3168 119.801 59.3037V58.9873C119.482 58.9128 119.174 58.8315 118.866 58.7207C118.15 58.4555 117.459 58.2961 116.703 58.1856C116.24 58.1217 115.785 58.0628 115.332 57.9473C114.542 57.7155 113.828 57.6935 113.013 57.709C112.898 57.7128 112.787 57.717 112.676 57.7207C112.73 57.4515 112.782 57.19 112.834 56.9287H113.151C113.2 55.7143 113.332 54.6356 112.458 53.6826C112.371 53.602 112.286 53.5236 112.201 53.4453C111.786 52.9155 111.457 52.5302 110.911 52.1309C110.366 51.7511 109.834 51.3578 109.303 50.959C109.188 50.8725 109.076 50.7881 108.965 50.7041C108.566 50.4041 108.166 50.104 107.768 49.8037L107.926 49.1709H107.609L107.451 49.4873C106.993 49.1674 106.56 48.8796 106.046 48.6563C105.932 48.6159 105.82 48.5763 105.709 48.5371V48.2207C105.534 48.1159 105.534 48.1154 105.363 48.0127C105.212 47.9219 105.065 47.8333 104.918 47.7451C104.44 47.254 103.988 46.8488 103.413 46.4785C102.971 46.1941 102.636 45.9397 102.256 45.5684C102.081 45.3885 102.081 45.3883 101.909 45.2119C101.447 44.9879 101.276 44.8953 100.939 44.4795C100.839 44.3517 100.74 44.2275 100.643 44.1035H100.326C100.219 43.7807 100.113 43.4676 100.009 43.1543H99.6924C99.5847 42.8314 99.4805 42.5175 99.376 42.2041H99.0596C99.0057 41.9888 98.9536 41.7793 98.9014 41.5703H98.584C98.584 41.2539 98.5839 41.2538 98.3662 40.8877C98.2788 40.7431 98.1942 40.6023 98.1094 40.4619C98.0103 40.1958 97.9057 39.9316 97.793 39.6709C97.2935 39.4015 97.2931 39.4012 97.1494 38.9482C97.0745 38.7534 97.0744 38.7533 97.001 38.5625C96.5552 38.2544 96.5548 38.2542 96.2881 37.7607C96.0853 37.409 96.0853 37.4089 95.8926 37.1377H95.5762C95.4809 36.8178 95.3739 36.5008 95.2588 36.1875L94.9424 36.0293C94.7839 35.5538 94.5886 35.2353 94.2598 34.8594C93.2938 33.9346 92.3262 33.5412 90.9971 33.5547C90.8314 33.5614 90.6696 33.5687 90.5088 33.5752Z" fill="white"/>
</svg>
